<svg width="19" height="19" viewBox="0 0 19 19" fill="none" xmlns="http://www.w3.org/2000/svg">
<mask id="path-1-inside-1_1400_660" fill="white">
<path d="M9.5 10.6875C8.91284 10.6875 8.33886 10.5134 7.85065 10.1872C7.36244 9.86097 6.98193 9.39731 6.75723 8.85484C6.53254 8.31237 6.47375 7.71546 6.5883 7.13958C6.70284 6.5637 6.98559 6.03472 7.40078 5.61953C7.81597 5.20434 8.34495 4.92159 8.92083 4.80705C9.49671 4.6925 10.0936 4.75129 10.6361 4.97598C11.1786 5.20068 11.6422 5.58119 11.9684 6.0694C12.2946 6.55761 12.4688 7.13159 12.4688 7.71875C12.4678 8.50582 12.1547 9.26039 11.5982 9.81693C11.0416 10.3735 10.2871 10.6866 9.5 10.6875ZM9.5 5.9375C9.1477 5.9375 8.80332 6.04197 8.51039 6.2377C8.21747 6.43342 7.98916 6.71162 7.85434 7.0371C7.71952 7.36258 7.68425 7.72073 7.75298 8.06626C7.82171 8.41178 7.99136 8.72917 8.24047 8.97829C8.48958 9.2274 8.80697 9.39705 9.1525 9.46578C9.49803 9.53451 9.85618 9.49923 10.1817 9.36441C10.5071 9.22959 10.7853 9.00129 10.9811 8.70836C11.1768 8.41544 11.2813 8.07105 11.2813 7.71875C11.2808 7.24648 11.093 6.79369 10.759 6.45974C10.4251 6.12579 9.97227 5.93797 9.5 5.9375Z"/>
</mask>
<path d="M9.5 10.6875V11.9375L9.5015 11.9375L9.5 10.6875ZM12.4688 7.71875L13.7188 7.72025V7.71875H12.4688ZM9.5 5.9375L9.50125 4.6875H9.5V5.9375ZM11.2813 7.71875H12.5313L12.5313 7.7175L11.2813 7.71875ZM9.5 9.4375C9.16006 9.4375 8.82776 9.3367 8.54512 9.14784L7.15619 11.2265C7.84996 11.6901 8.66561 11.9375 9.5 11.9375V9.4375ZM8.54512 9.14784C8.26247 8.95898 8.04217 8.69055 7.91208 8.37649L5.60238 9.3332C5.92169 10.1041 6.46242 10.763 7.15619 11.2265L8.54512 9.14784ZM7.91208 8.37649C7.782 8.06243 7.74796 7.71685 7.81428 7.38344L5.36231 6.89571C5.19953 7.71407 5.28308 8.56232 5.60238 9.3332L7.91208 8.37649ZM7.81428 7.38344C7.88059 7.05004 8.04429 6.74378 8.28466 6.50341L6.51689 4.73564C5.92689 5.32565 5.52509 6.07736 5.36231 6.89571L7.81428 7.38344ZM8.28466 6.50341C8.52503 6.26304 8.83129 6.09934 9.16469 6.03303L8.67696 3.58106C7.85861 3.74384 7.1069 4.14564 6.51689 4.73564L8.28466 6.50341ZM9.16469 6.03303C9.4981 5.96671 9.84368 6.00075 10.1577 6.13083L11.1144 3.82113C10.3436 3.50183 9.49532 3.41828 8.67696 3.58106L9.16469 6.03303ZM10.1577 6.13083C10.4718 6.26092 10.7402 6.48122 10.9291 6.76387L13.0078 5.37494C12.5442 4.68117 11.8853 4.14044 11.1144 3.82113L10.1577 6.13083ZM10.9291 6.76387C11.1179 7.04651 11.2188 7.37881 11.2188 7.71875H13.7188C13.7188 6.88436 13.4713 6.06871 13.0078 5.37494L10.9291 6.76387ZM11.2188 7.71725C11.2182 8.17333 11.0368 8.61056 10.7143 8.93305L12.4821 10.7008C13.2727 9.91022 13.7174 8.83832 13.7188 7.72025L11.2188 7.71725ZM10.7143 8.93305C10.3918 9.25554 9.95458 9.43696 9.4985 9.4375L9.5015 11.9375C10.6196 11.9362 11.6915 11.4914 12.4821 10.7008L10.7143 8.93305ZM9.5 4.6875C8.90048 4.6875 8.31442 4.86528 7.81593 5.19836L9.20485 7.27703C9.29222 7.21866 9.39493 7.1875 9.5 7.1875V4.6875ZM7.81593 5.19836C7.31744 5.53144 6.92892 6.00485 6.69949 6.55874L9.00919 7.51545C9.0494 7.41838 9.11749 7.33541 9.20485 7.27703L7.81593 5.19836ZM6.69949 6.55874C6.47006 7.11263 6.41003 7.72211 6.527 8.31012L8.97896 7.82239C8.95846 7.71934 8.96898 7.61252 9.00919 7.51545L6.69949 6.55874ZM6.527 8.31012C6.64396 8.89812 6.93266 9.43824 7.35658 9.86217L9.12435 8.0944C9.05005 8.02011 8.99946 7.92545 8.97896 7.82239L6.527 8.31012ZM7.35658 9.86217C7.78051 10.2861 8.32063 10.5748 8.90863 10.6918L9.39636 8.23979C9.29331 8.2193 9.19865 8.1687 9.12435 8.0944L7.35658 9.86217ZM8.90863 10.6918C9.49664 10.8087 10.1061 10.7487 10.66 10.5193L9.7033 8.20956C9.60623 8.24977 9.49941 8.26029 9.39636 8.23979L8.90863 10.6918ZM10.66 10.5193C11.2139 10.2898 11.6873 9.90131 12.0204 9.40282L9.94172 8.0139C9.88335 8.10126 9.80038 8.16935 9.7033 8.20956L10.66 10.5193ZM12.0204 9.40282C12.3535 8.90434 12.5313 8.31828 12.5313 7.71875H10.0313C10.0313 7.82382 10.0001 7.92654 9.94172 8.0139L12.0204 9.40282ZM12.5313 7.7175C12.5304 6.91414 12.211 6.14392 11.6429 5.57585L9.87513 7.34362C9.97496 7.44345 10.0311 7.57882 10.0313 7.72L12.5313 7.7175ZM11.6429 5.57585C11.0748 5.00779 10.3046 4.6883 9.50125 4.6875L9.49875 7.1875C9.63994 7.18764 9.7753 7.24379 9.87513 7.34362L11.6429 5.57585Z" fill="#4D2212" mask="url(#path-1-inside-1_1400_660)"/>
<mask id="path-3-inside-2_1400_660" fill="white">
<path d="M9.50001 17.8125L4.49113 11.9053C4.42153 11.8166 4.35266 11.7273 4.28451 11.6375C3.4289 10.5104 2.96668 9.13379 2.96876 7.71875C2.96876 5.98656 3.65687 4.32531 4.88172 3.10046C6.10656 1.87561 7.76781 1.1875 9.50001 1.1875C11.2322 1.1875 12.8935 1.87561 14.1183 3.10046C15.3431 4.32531 16.0313 5.98656 16.0313 7.71875C16.0333 9.13315 15.5713 10.5092 14.7161 11.6357L14.7155 11.6375C14.7155 11.6375 14.5374 11.8714 14.5107 11.9029L9.50001 17.8125ZM5.23273 10.922C5.23273 10.922 5.37107 11.1049 5.40254 11.1441L9.50001 15.9766L13.6028 11.1376C13.6289 11.1049 13.7685 10.9202 13.7685 10.9202C14.4674 9.99941 14.8451 8.8748 14.8438 7.71875C14.8438 6.3015 14.2808 4.9423 13.2786 3.94015C12.2765 2.938 10.9173 2.375 9.50001 2.375C8.08276 2.375 6.72355 2.938 5.72141 3.94015C4.71926 4.9423 4.15626 6.3015 4.15626 7.71875C4.15501 8.87552 4.53316 10.0008 5.23273 10.922Z"/>
</mask>
<path d="M9.50001 17.8125L8.54661 18.6209L9.50003 19.7453L10.4534 18.6209L9.50001 17.8125ZM4.49113 11.9053L3.50773 12.6769L3.52238 12.6956L3.53773 12.7137L4.49113 11.9053ZM4.28451 11.6375L5.28031 10.8819L5.28012 10.8817L4.28451 11.6375ZM2.96876 7.71875L4.21876 7.72058V7.71875H2.96876ZM9.50001 1.1875V-0.0625V1.1875ZM16.0313 7.71875H14.7813L14.7813 7.72058L16.0313 7.71875ZM14.7161 11.6357L13.7205 10.8799L13.5957 11.0443L13.5304 11.2401L14.7161 11.6357ZM14.7155 11.6375L15.71 12.3948L15.8356 12.2298L15.9012 12.0332L14.7155 11.6375ZM14.5107 11.9029L13.5578 11.0939L13.5572 11.0945L14.5107 11.9029ZM5.23273 10.922L6.22961 10.1679L6.22823 10.1661L5.23273 10.922ZM5.40254 11.1441L4.42789 11.9268L4.43834 11.9398L4.44912 11.9525L5.40254 11.1441ZM9.50001 15.9766L8.54659 16.785L9.50003 17.9095L10.4534 16.785L9.50001 15.9766ZM13.6028 11.1376L14.5563 11.9459L14.5678 11.9323L14.5789 11.9184L13.6028 11.1376ZM13.7685 10.9202L12.7728 10.1645L12.7712 10.1667L13.7685 10.9202ZM14.8438 7.71875H13.5938L13.5938 7.72023L14.8438 7.71875ZM9.50001 2.375V1.125V2.375ZM4.15626 7.71875L5.40626 7.7201V7.71875H4.15626ZM10.4534 17.0041L5.44453 11.0969L3.53773 12.7137L8.54661 18.6209L10.4534 17.0041ZM5.47454 11.1336C5.40912 11.0503 5.34437 10.9664 5.28031 10.8819L3.2887 12.3931C3.36094 12.4883 3.43395 12.5829 3.50773 12.6769L5.47454 11.1336ZM5.28012 10.8817C4.58994 9.97252 4.21708 8.86204 4.21876 7.72058L1.71876 7.71692C1.71628 9.40554 2.26787 11.0483 3.28889 12.3933L5.28012 10.8817ZM4.21876 7.71875C4.21876 6.31808 4.77517 4.97477 5.7656 3.98434L3.99783 2.21658C2.53857 3.67584 1.71876 5.65503 1.71876 7.71875H4.21876ZM5.7656 3.98434C6.75603 2.99392 8.09933 2.4375 9.50001 2.4375V-0.0625C7.43629 -0.0625 5.4571 0.757308 3.99783 2.21658L5.7656 3.98434ZM9.50001 2.4375C10.9007 2.4375 12.244 2.99392 13.2344 3.98434L15.0022 2.21658C13.5429 0.757308 11.5637 -0.0625 9.50001 -0.0625V2.4375ZM13.2344 3.98434C14.2248 4.97477 14.7813 6.31808 14.7813 7.71875H17.2813C17.2813 5.65503 16.4614 3.67584 15.0022 2.21658L13.2344 3.98434ZM14.7813 7.72058C14.7829 8.8614 14.4103 9.97126 13.7205 10.8799L15.7117 12.3915C16.7324 11.0471 17.2837 9.4049 17.2813 7.71692L14.7813 7.72058ZM13.5304 11.2401L13.5298 11.2418L15.9012 12.0332L15.9018 12.0314L13.5304 11.2401ZM14.7155 11.6375C13.721 10.8802 13.721 10.8802 13.721 10.8802C13.721 10.8802 13.721 10.8802 13.721 10.8802C13.721 10.8802 13.721 10.8803 13.721 10.8803C13.721 10.8803 13.7209 10.8803 13.7209 10.8804C13.7208 10.8805 13.7207 10.8806 13.7206 10.8808C13.7203 10.8812 13.7198 10.8818 13.7192 10.8826C13.7179 10.8843 13.7161 10.8867 13.7137 10.8898C13.7089 10.8961 13.702 10.9051 13.6937 10.9161C13.6769 10.938 13.6544 10.9675 13.6312 10.9977C13.5692 11.0786 13.5451 11.1089 13.5578 11.0939L15.4635 12.7119C15.503 12.6655 15.5813 12.563 15.615 12.5191C15.6397 12.4869 15.6634 12.4559 15.6809 12.433C15.6896 12.4215 15.6968 12.412 15.7019 12.4054C15.7045 12.4021 15.7065 12.3994 15.7078 12.3976C15.7085 12.3967 15.7091 12.396 15.7094 12.3955C15.7096 12.3953 15.7098 12.3951 15.7099 12.395C15.7099 12.3949 15.7099 12.3949 15.71 12.3948C15.71 12.3948 15.71 12.3948 15.71 12.3948C15.71 12.3948 15.71 12.3948 15.71 12.3948C15.71 12.3948 15.71 12.3948 14.7155 11.6375ZM13.5572 11.0945L8.54659 17.0041L10.4534 18.6209L15.4641 12.7113L13.5572 11.0945ZM5.23273 10.922C4.23584 11.6762 4.23585 11.6762 4.23585 11.6762C4.23585 11.6762 4.23585 11.6762 4.23586 11.6762C4.23587 11.6762 4.23588 11.6762 4.23589 11.6762C4.23591 11.6763 4.23594 11.6763 4.23598 11.6764C4.23606 11.6765 4.23617 11.6766 4.23632 11.6768C4.23661 11.6772 4.23702 11.6777 4.23756 11.6784C4.23864 11.6799 4.2402 11.6819 4.24218 11.6845C4.24615 11.6898 4.25183 11.6973 4.25872 11.7064C4.27248 11.7245 4.29124 11.7492 4.31111 11.7754C4.34443 11.8191 4.39929 11.8911 4.42789 11.9268L6.37718 10.3614C6.37928 10.364 6.37303 10.3561 6.35419 10.3316C6.33836 10.311 6.31934 10.2861 6.30055 10.2614C6.2819 10.2369 6.26411 10.2134 6.25095 10.1961C6.24438 10.1874 6.239 10.1803 6.23528 10.1754C6.23342 10.1729 6.23198 10.171 6.23101 10.1697C6.23053 10.1691 6.23017 10.1686 6.22993 10.1683C6.22981 10.1682 6.22972 10.168 6.22967 10.168C6.22964 10.1679 6.22963 10.1679 6.22961 10.1679C6.22961 10.1679 6.22961 10.1679 6.22961 10.1679C6.2296 10.1679 6.22961 10.1679 6.22961 10.1679C6.22961 10.1679 6.22961 10.1679 5.23273 10.922ZM4.44912 11.9525L8.54659 16.785L10.4534 15.1682L6.35595 10.3357L4.44912 11.9525ZM10.4534 16.785L14.5563 11.9459L12.6494 10.3292L8.54657 15.1683L10.4534 16.785ZM14.5789 11.9184C14.6046 11.8863 14.6589 11.8148 14.691 11.7725C14.7106 11.7468 14.7292 11.7221 14.743 11.704C14.7498 11.6949 14.7555 11.6874 14.7595 11.6822C14.7614 11.6796 14.763 11.6775 14.7641 11.6761C14.7646 11.6754 14.765 11.6748 14.7653 11.6744C14.7655 11.6743 14.7656 11.6741 14.7656 11.674C14.7657 11.674 14.7657 11.6739 14.7657 11.6739C14.7657 11.6739 14.7658 11.6739 14.7658 11.6739C14.7658 11.6738 14.7658 11.6738 14.7658 11.6738C14.7658 11.6738 14.7658 11.6738 13.7685 10.9202C12.7712 10.1667 12.7712 10.1667 12.7712 10.1667C12.7712 10.1667 12.7712 10.1667 12.7712 10.1667C12.7712 10.1667 12.7712 10.1667 12.7712 10.1667C12.7712 10.1667 12.7711 10.1667 12.7711 10.1668C12.771 10.1668 12.771 10.167 12.7708 10.1671C12.7706 10.1674 12.7702 10.1679 12.7697 10.1686C12.7687 10.1699 12.7673 10.1718 12.7654 10.1743C12.7616 10.1793 12.7562 10.1865 12.7496 10.1952C12.7363 10.2127 12.7185 10.2363 12.6999 10.2608C12.6812 10.2854 12.6623 10.3102 12.6469 10.3304C12.6278 10.3553 12.623 10.3613 12.6267 10.3567L14.5789 11.9184ZM14.7641 11.676C15.6284 10.5373 16.0955 9.14674 16.0938 7.71727L13.5938 7.72023C13.5948 8.60285 13.3064 9.46147 12.7728 10.1645L14.7641 11.676ZM16.0938 7.71875C16.0938 5.96998 15.3991 4.29283 14.1625 3.05626L12.3947 4.82403C13.1625 5.59176 13.5938 6.63302 13.5938 7.71875H16.0938ZM14.1625 3.05626C12.9259 1.8197 11.2488 1.125 9.50001 1.125V3.625C10.5857 3.625 11.627 4.0563 12.3947 4.82403L14.1625 3.05626ZM9.50001 1.125C7.75124 1.125 6.07409 1.8197 4.83752 3.05626L6.60529 4.82403C7.37302 4.0563 8.41428 3.625 9.50001 3.625V1.125ZM4.83752 3.05626C3.60095 4.29283 2.90626 5.96998 2.90626 7.71875H5.40626C5.40626 6.63302 5.83756 5.59176 6.60529 4.82403L4.83752 3.05626ZM2.90626 7.7174C2.90472 9.14765 3.37226 10.5389 4.23722 11.678L6.22823 10.1661C5.69405 9.46262 5.4053 8.60339 5.40626 7.7201L2.90626 7.7174Z" fill="#4D2212" mask="url(#path-3-inside-2_1400_660)"/>
</svg>
