<svg width="40" height="40" viewBox="0 0 40 40" fill="none" xmlns="http://www.w3.org/2000/svg">
<g clip-path="url(#clip0_1405_733)">
<g filter="url(#filter0_d_1405_733)">
<path d="M16.0369 11.0012H12.394V10.8174V7.39467H15.8465H16.0369V11.0012Z" stroke="#4D2212" stroke-width="1.25"/>
<path d="M21.6962 16.6168H18.1523V16.4821V13.1103H21.5553H21.6962V16.6168ZM23.2088 10.9506H23.0462V10.6929C23.0957 10.7816 23.15 10.8676 23.2088 10.9506ZM22.8346 10.2146L22.0931 10.9506H18.1518V10.8163V7.44408H21.0697C21.0865 7.48957 21.1045 7.53465 21.1237 7.57927L21.1236 7.5793L21.128 7.58906C21.3134 8.00258 21.5968 8.36471 21.9536 8.64417C22.1793 8.82295 22.4306 8.96565 22.6985 9.06783L22.8346 10.2146Z" stroke="#4D2212" stroke-width="1.35"/>
<path d="M28.3563 26.9913V30.7441L28.1937 30.7504L28.0966 30.277C27.854 29.0933 28.0253 27.9995 28.3563 26.9913ZM23.9038 29.909C24.3758 30.2721 24.899 30.5636 25.5037 30.7663L25.6753 31.4881C25.7418 31.7681 25.8248 32.0438 25.9283 32.3095C24.5911 32.1213 23.6516 31.6123 22.8917 30.9392C22.0268 30.173 21.3814 29.1909 20.6543 28.0845C20.5296 27.8948 20.4026 27.7014 20.2716 27.5049L20.2566 27.4823L20.2397 27.461C19.9285 27.0667 19.6374 26.657 19.3673 26.2335L19.3513 26.2085L19.3333 26.185C18.6946 25.3543 17.9419 24.5511 16.9743 23.8711L16.9568 23.8588L16.9385 23.8477C15.4082 22.9111 13.6399 22.4373 12.4437 22.2052V22.1125V18.7767H15.8461H15.9865V20.8113V21.3339C15.8602 21.3649 15.735 21.3959 15.6111 21.4269L13.1342 22.0467L15.5937 22.732C18.8132 23.629 20.3114 25.61 21.6686 27.4174L21.6996 27.4586C22.3698 28.3516 23.0395 29.2439 23.9038 29.909ZM18.1519 20.6242V18.7767H21.5549H21.6958V19.7447V20.188C20.5189 20.3586 19.3149 20.5852 18.1519 20.8348V20.6242ZM23.8607 19.651V18.7767H27.2632H27.5412L27.7385 18.5809L28.3568 17.9676V20.1435V20.2325C27.7181 20.0172 26.8131 19.8708 25.5248 19.8708C24.9949 19.8708 24.4371 19.8957 23.8607 19.941V19.651ZM28.0791 16.6174H23.8607V16.4827V13.1109H25.8966C26.2129 13.4453 26.6081 13.6981 27.0484 13.8446C27.3863 13.959 27.743 14.0076 28.0991 13.9878H28.3568V16.6174H28.0791Z" stroke="#4D2212" stroke-width="1.35"/>
</g>
</g>
<defs>
<filter id="filter0_d_1405_733" x="6" y="5" width="28.5" height="38.75" filterUnits="userSpaceOnUse" color-interpolation-filters="sRGB">
<feFlood flood-opacity="0" result="BackgroundImageFix"/>
<feColorMatrix in="SourceAlpha" type="matrix" values="0 0 0 0 0 0 0 0 0 0 0 0 0 0 0 0 0 0 127 0" result="hardAlpha"/>
<feOffset dy="4"/>
<feGaussianBlur stdDeviation="2"/>
<feComposite in2="hardAlpha" operator="out"/>
<feColorMatrix type="matrix" values="0 0 0 0 0 0 0 0 0 0 0 0 0 0 0 0 0 0 0.25 0"/>
<feBlend mode="normal" in2="BackgroundImageFix" result="effect1_dropShadow_1405_733"/>
<feBlend mode="normal" in="SourceGraphic" in2="effect1_dropShadow_1405_733" result="shape"/>
</filter>
<clipPath id="clip0_1405_733">
<rect width="40" height="40" fill="white"/>
</clipPath>
</defs>
</svg>
