<svg width="19" height="19" viewBox="0 0 19 19" fill="none" xmlns="http://www.w3.org/2000/svg">
<g clip-path="url(#clip0_1400_648)">
<path d="M13.4288 12.5154C13.4282 15.3543 11.6579 17.6558 9.47434 17.6553C7.28967 17.6558 5.52046 15.3543 5.5199 12.5154C5.52102 9.67593 7.29134 7.3744 9.47489 7.37495C11.6584 7.3744 13.4282 9.67649 13.4288 12.5154Z" stroke="#4D2212" stroke-width="1.25" stroke-linecap="round" stroke-linejoin="round"/>
<path d="M9.47435 7.37575C9.47435 7.37575 10.6609 8.95708 10.6603 10.539C10.6603 12.1203 8.28835 12.911 8.28835 14.4923C8.28779 16.0742 9.4749 17.6561 9.4749 17.6561" stroke="#4D2212" stroke-width="1.25" stroke-linecap="round" stroke-linejoin="round"/>
<path d="M11.6021 6.16804C8.61828 4.44536 14.5858 1.646 11.6021 1" stroke="#4D2212" stroke-linecap="round"/>
<path d="M15.9097 10.337C12.9259 8.6143 18.8934 5.81495 15.9097 5.16895" stroke="#4D2212" stroke-linecap="round"/>
<path d="M2.98932 10.337C0.00548623 8.6143 5.97299 5.81495 2.98932 5.16895" stroke="#4D2212" stroke-linecap="round"/>
<path d="M7.29547 6.16804C4.31164 4.44536 10.2791 1.646 7.29547 1" stroke="#4D2212" stroke-linecap="round"/>
</g>
<defs>
<clipPath id="clip0_1400_648">
<rect width="19" height="19" fill="white"/>
</clipPath>
</defs>
</svg>
