<svg width="15" height="15" viewBox="0 0 15 15" fill="none" xmlns="http://www.w3.org/2000/svg">
<g id="circum:coffee-bean">
<path id="Vector" d="M11.9692 3.04239C11.4779 2.58147 10.8833 2.24502 10.2351 2.06124C9.58702 1.87746 8.9043 1.85171 8.24418 1.98614C6.68728 2.26054 5.25678 3.01954 4.15668 4.15489C3.01715 5.25524 2.2557 6.68845 1.98168 8.24864C1.8483 8.9078 1.87458 9.58932 2.05833 10.2362C2.24208 10.8832 2.57797 11.4768 3.03793 11.9674C3.42209 12.3359 3.87588 12.6241 4.37275 12.8151C4.86963 13.0061 5.3996 13.0961 5.93168 13.0799C7.79792 13.0048 9.56182 12.2069 10.8504 10.8549C13.3123 8.39239 13.8123 4.88614 11.9692 3.04239ZM2.60043 8.34239C2.8555 6.91611 3.55304 5.6063 4.59418 4.59864C5.60015 3.55526 6.91073 2.85731 8.33793 2.60489C8.58204 2.56799 8.82855 2.54919 9.07543 2.54864C9.52522 2.53306 9.9736 2.60741 10.3943 2.76732C10.815 2.92722 11.1995 3.16948 11.5254 3.47989C11.5516 3.50403 11.5747 3.53132 11.5942 3.56114C11.2049 3.89858 10.7553 4.1594 10.2692 4.32989C9.56699 4.58242 8.9335 4.99548 8.41918 5.53614C7.87852 6.05046 7.46546 6.68395 7.21293 7.38614C6.99421 8.01211 6.62757 8.57601 6.14418 9.02989C5.68856 9.5112 5.1252 9.87749 4.50043 10.0986C3.96308 10.29 3.46529 10.5781 3.03168 10.9486C2.58608 10.1576 2.43339 9.23482 2.60043 8.34239ZM10.4067 10.4111C8.18793 12.6299 5.08168 13.1299 3.48168 11.5299C3.45514 11.5043 3.4301 11.4771 3.40668 11.4486C3.799 11.1122 4.2504 10.8515 4.73793 10.6799C5.43814 10.4234 6.07078 10.0109 6.58793 9.47364C7.12732 8.95826 7.54016 8.32509 7.79418 7.62364C8.0129 6.99767 8.37954 6.43377 8.86293 5.97989C9.31681 5.4965 9.88071 5.12986 10.5067 4.91114C11.0416 4.7157 11.5369 4.42567 11.9692 4.05489C12.9942 5.74989 12.3879 8.42989 10.4067 10.4111Z" fill="#4D2212"/>
</g>
</svg>
