<svg width="15" height="15" viewBox="0 0 15 15" fill="none" xmlns="http://www.w3.org/2000/svg">
<g id="pepicons-pencil:stars" clip-path="url(#clip0_507_3032)">
<g id="Group">
<path id="Vector" fill-rule="evenodd" clip-rule="evenodd" d="M6.75 0.375C6.83044 0.374873 6.90878 0.400613 6.97347 0.448421C7.03816 0.496228 7.08576 0.563569 7.10925 0.6405L8.55525 5.39025L12.879 6.9705C12.9503 6.99662 13.012 7.04377 13.0559 7.10571C13.0998 7.16765 13.1239 7.24147 13.125 7.3174C13.126 7.39332 13.104 7.46778 13.0618 7.53092C13.0196 7.59406 12.9593 7.64291 12.8888 7.671L8.5935 9.37725L7.10925 14.3573C7.08611 14.4345 7.03866 14.5023 6.97394 14.5505C6.90922 14.5987 6.83069 14.6247 6.75 14.6247C6.66931 14.6247 6.59078 14.5987 6.52606 14.5505C6.46134 14.5023 6.41389 14.4345 6.39075 14.3573L4.9065 9.37725L0.611249 7.671C0.540706 7.64291 0.480353 7.59406 0.438175 7.53092C0.395997 7.46778 0.37398 7.39332 0.375036 7.3174C0.376093 7.24147 0.400174 7.16765 0.444093 7.10571C0.488013 7.04377 0.549701 6.99662 0.620999 6.9705L4.94475 5.39025L6.3915 0.6405C6.41495 0.563692 6.46244 0.49644 6.52698 0.448644C6.59151 0.400849 6.66969 0.375034 6.75 0.375ZM6.75 2.037L5.60775 5.787C5.59082 5.84257 5.5612 5.89345 5.52124 5.93562C5.48129 5.97779 5.43208 6.0101 5.3775 6.03L1.80225 7.338L5.35275 8.748C5.40535 8.76899 5.45252 8.80162 5.49071 8.84345C5.5289 8.88527 5.55712 8.93521 5.57325 8.9895L6.75075 12.9375L7.92675 8.9895C7.94288 8.93521 7.9711 8.88527 8.00929 8.84345C8.04748 8.80162 8.09464 8.76899 8.14725 8.748L11.6977 7.338L8.1225 6.0315C8.06792 6.0116 8.01871 5.97929 7.97875 5.93712C7.9388 5.89495 7.90918 5.84407 7.89225 5.7885L6.75 2.037Z" fill="#4D2212"/>
<path id="Vector_2" d="M12.5627 14.3402C12.4877 14.3402 12.4202 14.2802 12.4127 14.2052C12.2777 12.8402 12.1727 12.4052 10.9202 12.2852C10.8452 12.2777 10.7852 12.2102 10.7852 12.1352C10.7852 12.0602 10.8452 11.9927 10.9202 11.9852C12.2027 11.8652 12.2777 11.5352 12.4127 10.1702C12.4127 10.0952 12.4877 10.0352 12.5627 10.0352C12.6377 10.0352 12.7052 10.0952 12.7127 10.1702C12.8477 11.5352 12.9302 11.8652 14.2052 11.9852C14.2802 11.9927 14.3402 12.0602 14.3402 12.1352C14.3402 12.2102 14.2802 12.2777 14.2052 12.2852C12.9452 12.4052 12.8477 12.8402 12.7127 14.2127C12.7127 14.2877 12.6452 14.3477 12.5627 14.3477V14.3402Z" fill="#4D2212"/>
</g>
</g>
<defs>
<clipPath id="clip0_507_3032">
<rect width="15" height="15" fill="white"/>
</clipPath>
</defs>
</svg>
