<svg width="24" height="24" viewBox="0 0 24 24" fill="none" xmlns="http://www.w3.org/2000/svg">
<g id="game-icons:coffee-beans">
<path id="Vector" d="M9.51779 1.24914C9.10093 1.25204 8.68941 1.31129 8.28999 1.43068C7.89371 1.54928 7.52865 1.72117 7.19733 1.94007C7.5593 2.85985 8.48335 4.02742 9.55374 5.02412C10.6713 6.06484 11.9528 6.94904 12.7804 7.34781L12.7901 7.35249L12.7996 7.35732C13.5601 7.74803 14.0985 8.36293 14.4093 9.04126C14.6094 9.47804 14.726 9.93554 14.794 10.4006C15.4034 9.92532 16.0457 9.5447 16.6988 9.26846C16.6491 8.41018 16.4603 7.51018 16.1164 6.60901C15.3952 4.71901 14.1355 3.19745 12.7088 2.26951C11.6835 1.60257 10.5831 1.24173 9.51779 1.24914ZM5.93616 3.23218C5.69649 3.60409 5.49994 4.01874 5.3506 4.46907C4.85185 5.97254 4.8923 7.85851 5.61357 9.7486C6.05007 10.8925 6.68405 11.9011 7.43279 12.7252C8.17041 12.9459 8.89998 13.2868 9.58529 13.7495C10.1148 14.107 10.5866 14.5162 10.9955 14.9613C11.129 14.9937 11.2625 15.0214 11.3958 15.0431C11.6499 14.3804 11.9797 13.7211 12.386 13.0814C12.6319 12.6941 12.9013 12.3222 13.1927 11.9678C13.1961 11.7244 13.1941 11.4886 13.1826 11.2635C13.1512 10.6546 13.0537 10.1338 12.8751 9.74406C12.6966 9.35434 12.464 9.08209 12.0285 8.8584L12.0477 8.86787C10.9753 8.35107 9.63615 7.40668 8.40366 6.25904C7.42397 5.34685 6.51516 4.32512 5.93616 3.23218ZM19.0495 9.59429C18.4164 9.59945 17.7466 9.74649 17.069 10.0278C15.6234 10.6279 14.1718 11.8442 13.0982 13.5339C12.549 14.3984 12.1543 15.2997 11.9089 16.1834C12.8722 17.7996 13.1087 19.656 12.4148 21.2151C12.527 21.3753 12.6522 21.526 12.7891 21.6657C13.8037 20.7903 14.973 20.0652 15.804 19.3206C16.2582 18.9137 16.6021 18.5109 16.7932 18.1272C16.9843 17.7434 17.0501 17.3914 16.9507 16.912L16.9449 16.8842L16.9411 16.856C16.5636 14.1235 17.2258 12.5177 18.1909 11.5352C18.967 10.7454 19.7395 10.3294 20.2724 9.78015C19.8874 9.65218 19.4768 9.59078 19.0495 9.59429ZM21.7095 10.7171C20.93 11.686 19.9689 12.1335 19.3947 12.718C18.7349 13.3896 18.2794 14.1981 18.6112 16.6135C18.7709 17.4347 18.6305 18.2235 18.3038 18.8795C17.9711 19.5474 17.4736 20.0904 16.9301 20.5774C16.1045 21.3172 15.1521 21.9507 14.3554 22.5687C15.2589 22.8034 16.2876 22.6898 17.335 22.2549C18.7807 21.6549 20.2323 20.4385 21.3058 18.7488C22.3795 17.0591 22.8639 15.2282 22.7931 13.6646C22.7389 12.4689 22.3696 11.4443 21.7096 10.7171L21.7095 10.7171ZM18.6112 16.6135C18.6083 16.5987 18.6061 16.5841 18.603 16.5693L18.6128 16.6252C18.6123 16.6213 18.6118 16.6174 18.6112 16.6135H18.6112ZM5.47571 13.2655C4.61401 13.2577 3.80227 13.4467 3.11907 13.8189C3.12376 13.8191 3.12783 13.8194 3.13252 13.8196C3.53705 13.8339 4.0449 13.7861 4.62962 13.866C5.21429 13.9458 5.89922 14.2113 6.41808 14.7984C6.93699 15.3855 7.29277 16.2178 7.5406 17.4131L7.54646 17.441L7.5503 17.4692C7.66529 18.3032 8.19652 18.7857 9.11752 19.2374C9.90333 19.6229 10.9122 19.8981 11.8699 20.1783C12.2988 18.2565 11.2811 15.9124 9.11316 14.4488C7.94419 13.6596 6.66282 13.2762 5.4758 13.2655H5.47571ZM1.67518 15.2083C0.490647 17.2488 1.44062 20.2429 4.0239 21.987C6.56569 23.7031 9.63887 23.4999 11.118 21.7198C10.2538 21.4735 9.27408 21.1939 8.37437 20.7526C7.21421 20.1835 6.10843 19.2273 5.8853 17.7422C5.67282 16.725 5.3889 16.1822 5.15358 15.9159C4.91733 15.6484 4.73312 15.5834 4.40124 15.5381C4.06937 15.4928 3.61327 15.5252 3.07313 15.5061C2.65219 15.4913 2.15832 15.4309 1.67518 15.2084V15.2083ZM5.88535 17.7421C5.88638 17.7468 5.88741 17.7512 5.8884 17.7559L5.87869 17.6998C5.88066 17.7141 5.88324 17.7279 5.8854 17.7422L5.88535 17.7421Z" fill="#4D2212"/>
</g>
</svg>
