<svg width="32" height="32" viewBox="0 0 32 32" fill="none" xmlns="http://www.w3.org/2000/svg">
<g id="iconoir:delivery-truck">
<g id="Group">
<path id="Vector" d="M10.6667 25.3333C11.3739 25.3333 12.0522 25.0524 12.5523 24.5523C13.0524 24.0522 13.3333 23.3739 13.3333 22.6667C13.3333 21.9594 13.0524 21.2811 12.5523 20.781C12.0522 20.281 11.3739 20 10.6667 20C9.95942 20 9.28115 20.281 8.78105 20.781C8.28095 21.2811 8 21.9594 8 22.6667C8 23.3739 8.28095 24.0522 8.78105 24.5523C9.28115 25.0524 9.95942 25.3333 10.6667 25.3333ZM24 25.3333C24.7072 25.3333 25.3855 25.0524 25.8856 24.5523C26.3857 24.0522 26.6667 23.3739 26.6667 22.6667C26.6667 21.9594 26.3857 21.2811 25.8856 20.781C25.3855 20.281 24.7072 20 24 20C23.2928 20 22.6145 20.281 22.1144 20.781C21.6143 21.2811 21.3333 21.9594 21.3333 22.6667C21.3333 23.3739 21.6143 24.0522 22.1144 24.5523C22.6145 25.0524 23.2928 25.3333 24 25.3333Z" stroke="#4D2212" stroke-width="1.5" stroke-miterlimit="1.5" stroke-linecap="round" stroke-linejoin="round"/>
<path id="Vector_2" d="M13.4002 22.6667H20.0002V8.8C20.0002 8.58783 19.9159 8.38434 19.7658 8.23431C19.6158 8.08429 19.4123 8 19.2002 8H1.3335M7.5335 22.6667H4.80016C4.69511 22.6667 4.59108 22.646 4.49402 22.6058C4.39696 22.5656 4.30876 22.5066 4.23448 22.4324C4.16019 22.3581 4.10126 22.2699 4.06106 22.1728C4.02086 22.0758 4.00016 21.9717 4.00016 21.8667V15.3333" stroke="#4D2212" stroke-width="1.5" stroke-linecap="round"/>
<path id="Vector_3" d="M2.66699 12H8.00033" stroke="#4D2212" stroke-width="1.5" stroke-linecap="round" stroke-linejoin="round"/>
<path id="Vector_4" d="M20 12H27.48C27.6346 12 27.7859 12.0449 27.9156 12.1291C28.0453 12.2134 28.1478 12.3334 28.2107 12.4747L30.5973 17.8453C30.6428 17.9473 30.6664 18.0577 30.6667 18.1693V21.8667C30.6667 21.9717 30.646 22.0758 30.6058 22.1728C30.5656 22.2699 30.5066 22.3581 30.4324 22.4324C30.3581 22.5066 30.2699 22.5656 30.1728 22.6058C30.0758 22.646 29.9717 22.6667 29.8667 22.6667H27.3333M20 22.6667H21.3333" stroke="#4D2212" stroke-width="1.5" stroke-linecap="round"/>
</g>
</g>
</svg>
