<svg width="23" height="25" viewBox="0 0 23 25" fill="none" xmlns="http://www.w3.org/2000/svg">
<path id="Vector 4" d="M8 23V16.6364C8 16.0841 8.44772 15.6364 9 15.6364H14C14.5523 15.6364 15 16.0841 15 16.6364V23C15 23.5523 15.4477 24 16 24H21C21.5523 24 22 23.5523 22 23V8.84013C22 8.5131 21.8401 8.20673 21.5718 8.01973L12.0718 1.39852C11.7282 1.15905 11.2718 1.15905 10.9282 1.39852L1.42821 8.01973C1.15991 8.20673 1 8.5131 1 8.84013V23C1 23.5523 1.44772 24 2 24H7C7.55228 24 8 23.5523 8 23Z" stroke="#4D2212" stroke-width="1.5"/>
</svg>
