<svg width="30" height="30" viewBox="0 0 30 30" fill="none" xmlns="http://www.w3.org/2000/svg">
<g id="teenyicons:tick-circle-solid" clip-path="url(#clip0_507_3328)">
<path id="Subtract" fill-rule="evenodd" clip-rule="evenodd" d="M0 15C0 11.0218 1.58035 7.20644 4.3934 4.3934C7.20644 1.58035 11.0218 0 15 0C18.9782 0 22.7936 1.58035 25.6066 4.3934C28.4196 7.20644 30 11.0218 30 15C30 18.9782 28.4196 22.7936 25.6066 25.6066C22.7936 28.4196 18.9782 30 15 30C11.0218 30 7.20644 28.4196 4.3934 25.6066C1.58035 22.7936 0 18.9782 0 15ZM20.1035 7.22265L23.8535 12.8477L24.3718 13.625H23.4375H7.5V12.625H22.5032L19.2715 7.77735L20.1035 7.22265ZM7.08397 18.0898L10.834 23.7148L11.666 23.1602L8.43426 18.3125H23.4375V17.3125H7.5H6.56574L7.08397 18.0898Z" fill="#00BB83"/>
</g>
<defs>
<clipPath id="clip0_507_3328">
<rect width="30" height="30" fill="white"/>
</clipPath>
</defs>
</svg>
