<svg width="230" height="129" viewBox="0 0 230 129" fill="none" xmlns="http://www.w3.org/2000/svg">
<g id="Group">
<path id="Vector" d="M229.126 13.1475C229.126 15.2175 228.116 16.8275 226.746 18.2375C222.206 22.8775 217.676 27.5375 213.086 32.1275C203.676 41.5475 194.226 50.9275 184.786 60.3075C180.896 64.1775 180.866 66.5475 184.776 70.4475C197.986 83.6675 211.206 96.8775 224.416 110.098C225.776 111.458 227.146 112.818 228.156 114.468C229.606 116.838 229.406 118.958 227.586 121.088C225.486 123.558 223.076 124.378 220.606 123.448C218.756 122.748 217.326 121.458 215.966 120.088C203.046 107.148 189.916 94.4175 177.236 81.2375C171.566 75.3475 169.356 75.4375 163.696 81.3575C150.956 94.6975 137.776 107.608 124.566 120.478C119.836 125.088 116.786 124.938 111.856 120.038C99.5657 107.818 87.3157 95.5775 75.0457 83.3375C73.2257 81.5275 71.4657 79.6675 69.5957 77.9175C67.0957 75.5775 65.3857 75.6375 62.9757 78.0375C49.2457 91.7575 35.5157 105.488 21.7957 119.218C20.4257 120.588 19.0157 121.898 17.3357 122.848C14.4557 124.478 11.6057 123.888 9.39571 121.288C7.35571 118.888 7.28571 116.198 9.31571 113.628C10.3057 112.368 11.4157 111.198 12.5457 110.068C25.7357 96.9475 38.5957 83.4975 52.1557 70.7475C56.3257 66.8275 56.2957 64.3775 52.1657 60.2675C38.6557 46.7775 25.1357 33.2975 11.6257 19.8175C10.8857 19.0775 10.1457 18.3475 9.50571 17.5275C7.13571 14.5075 7.13571 12.0675 9.41571 9.54755C12.0157 6.68755 14.8157 6.22755 17.9557 8.36755C19.4657 9.39755 20.8457 10.6575 22.1457 11.9575C35.2257 25.0775 48.2857 38.2275 61.3457 51.3675C65.2257 55.2675 67.5157 55.2475 71.4457 51.2775C82.1657 40.4475 92.8957 29.6275 103.636 18.8175C106.236 16.1975 108.876 13.6275 111.536 11.0675C117.036 5.74755 120.056 5.77755 125.596 11.1775C128.126 13.6375 130.646 16.1075 133.136 18.6175C143.766 29.3075 154.596 39.7975 164.906 50.8075C169.016 55.1975 171.946 55.1475 176.226 50.6575C188.796 37.4875 201.926 24.8575 214.766 11.9475C216.346 10.3575 217.956 8.75755 220.036 7.81755C224.216 5.91755 229.106 8.79755 229.126 13.1475ZM118.436 106.768C120.316 106.688 121.416 105.498 122.546 104.358C134.026 92.8175 145.496 81.2775 156.976 69.7375C160.896 65.7975 160.896 65.1775 156.976 61.2375C145.506 49.6875 134.046 38.1275 122.566 26.5975C119.416 23.4275 117.606 23.4275 114.466 26.5575C102.946 38.0575 91.4457 49.5676 79.9357 61.0775C76.3157 64.6975 76.3157 66.2975 79.9357 69.8875C85.8057 75.6975 91.7257 81.4475 97.5757 87.2775C103.256 92.9375 108.856 98.6775 114.506 104.368C115.636 105.508 116.776 106.648 118.426 106.768H118.436Z" fill="#4C2618"/>
<path id="Vector_2" d="M24.0953 85.4774C20.6653 85.4374 17.4953 84.8274 14.7253 82.4874C13.0953 81.1174 10.9953 80.3274 9.19534 79.1474C2.95534 75.0774 -0.384663 69.4074 0.0353374 61.8374C0.265337 57.6474 3.10534 56.0074 6.83534 57.8474C9.29534 59.0574 11.4653 60.6574 13.0353 63.0074C14.9553 65.9074 17.2253 68.4374 20.6253 69.7374C22.2153 70.3474 23.4953 71.5574 24.4353 72.9574C26.0953 75.4274 27.8653 77.7174 30.1853 79.6474C31.9953 81.1574 31.3053 83.5574 29.0153 84.6774C27.8853 85.2374 26.3053 85.4874 24.0853 85.4774H24.0953Z" fill="#4C2618"/>
<path id="Vector_3" d="M61.0555 35.1076C59.0655 38.2876 56.5355 38.4876 54.3655 35.3676C51.8055 31.6776 50.1955 27.7276 51.3455 22.9876C51.9255 20.6076 51.6555 18.0376 52.0155 15.5976C52.9955 8.98763 56.4155 4.01763 62.4355 1.00763C64.3055 0.0776286 66.4155 -0.622371 68.3455 0.847629C70.2355 2.28763 70.1155 4.42763 69.9455 6.55763C69.7355 9.33763 68.7955 11.8376 67.3755 14.2076C65.9555 16.5876 65.1855 19.1376 65.3355 21.9676C65.4755 24.6976 64.5055 27.1476 63.0155 29.3976C61.8555 31.1576 60.9855 33.0176 61.0055 35.1876L61.0555 35.1176V35.1076Z" fill="#4C2618"/>
<path id="Vector_4" d="M153.065 106.818C153.095 100.958 155.715 99.2676 160.055 100.988C163.205 102.248 165.615 104.418 167.705 106.988C169.265 108.918 171.275 110.198 173.595 110.938C175.315 111.488 176.865 112.328 178.065 113.628C180.225 115.978 182.285 118.368 184.965 120.218C186.865 121.518 186.435 124.198 184.155 125.268C180.155 127.148 175.835 127.438 171.845 125.548C169.115 124.258 166.375 122.938 163.675 121.558C157.175 118.218 153.775 112.768 153.065 106.798V106.818Z" fill="#4C2618"/>
<path id="Vector_5" d="M167.855 91.7874C179.205 92.0374 189.155 100.437 191.295 111.307C191.685 113.307 191.645 115.307 190.905 117.227C190.215 119.017 188.915 119.627 187.065 118.977C185.175 118.317 183.745 117.107 182.595 115.497C180.315 112.317 177.635 109.657 173.735 108.457C172.005 107.927 170.725 106.627 169.625 105.237C167.275 102.267 164.315 100.217 160.805 98.8174C157.785 97.6174 157.635 95.9174 160.275 94.0274C162.635 92.3374 165.285 91.5574 167.855 91.7974V91.7874Z" fill="#4C2618"/>
<path id="Vector_6" d="M37.1154 72.3578C37.1154 72.6778 37.1354 72.9978 37.1154 73.3178C36.9754 75.5978 36.8454 78.2478 34.3154 78.8978C31.8254 79.5478 29.9954 77.5778 28.6754 75.6178C27.2954 73.5578 26.3354 71.0178 24.2254 69.7378C19.5754 66.9078 15.9654 63.1178 12.5954 58.9578C11.3454 57.4178 9.31539 56.7078 7.61539 55.6678C5.41539 54.3178 5.36539 52.8878 7.48539 51.4678C9.74539 49.9578 12.2954 49.3378 15.0054 49.5078C24.1054 50.0678 30.2754 55.0178 34.4854 62.7478C36.1054 65.7178 37.2454 68.8678 37.1054 72.3478L37.1154 72.3578Z" fill="#4C2618"/>
<path id="Vector_7" d="M61.0049 35.1877C62.6049 32.2577 65.2449 29.6977 65.5949 26.3177C66.1149 21.2277 67.7249 16.6077 69.9649 12.0777C70.8849 10.2177 70.7449 8.02771 70.8549 5.93771C71.0049 3.11771 72.4449 2.39771 74.8449 3.90771C79.4649 6.80771 80.9249 11.5877 81.2449 16.4777C81.8649 26.1277 77.5849 33.6077 69.7349 39.0877C68.2249 40.1477 66.4549 40.7377 64.5549 40.7777C61.8149 40.8377 61.0049 40.0477 61.0349 37.2577C61.0349 36.5377 61.0549 35.8177 61.0649 35.1077L61.0149 35.1877H61.0049Z" fill="#4C2618"/>
<path id="Vector_8" d="M175.845 2.16744C177.835 2.12744 180.195 2.68744 182.395 4.02744C183.975 4.98744 184.205 5.77744 182.725 7.05744C181.125 8.43744 179.355 9.57744 177.405 10.2874C173.115 11.8574 170.425 14.9474 168.545 18.9374C166.315 23.6774 163.565 27.8874 158.245 29.7574C156.895 30.2374 156.275 30.1574 155.655 28.8474C153.895 25.1174 153.495 21.3874 155.025 17.4574C157.645 10.6974 165.235 1.96744 175.835 2.16744H175.845Z" fill="#4C2618"/>
<path id="Vector_9" d="M196.925 63.9375C196.865 57.5975 198.865 52.1475 203.785 47.9375C205.415 46.5475 207.295 45.7475 209.355 45.2575C210.765 44.9275 211.425 45.2275 211.395 46.8475C211.345 48.9775 210.945 51.0375 210.045 52.8975C207.945 57.2275 208.135 61.5075 209.695 65.9375C211.375 70.7075 212.205 75.5075 209.875 80.4175C209.165 81.9275 208.615 82.2175 207.055 81.6475C199.405 78.8475 197.685 72.4375 196.935 65.3875C196.885 64.9075 196.935 64.4275 196.935 63.9475L196.925 63.9375Z" fill="#4C2618"/>
<path id="Vector_10" d="M65.6152 94.5379C68.3952 94.3979 70.8552 95.1579 73.1252 96.7079C74.2352 97.4679 74.1952 98.0979 73.3352 98.9779C71.6752 100.688 69.6352 101.868 67.4752 102.668C63.3452 104.198 60.7752 107.158 58.8952 110.948C57.7852 113.168 56.6552 115.378 55.1552 117.378C53.2352 119.938 50.4452 121.168 47.6552 122.378C46.3652 122.938 46.1952 121.718 45.8452 121.018C43.8452 116.968 43.6452 112.858 45.7052 108.778C49.8552 100.558 55.7952 94.7979 65.6252 94.5379H65.6152Z" fill="#4C2618"/>
<path id="Vector_11" d="M157.505 31.2775C164.045 31.0975 168.075 27.6175 170.715 22.3675C172.845 18.1275 175.385 14.4475 179.865 12.2875C182.185 11.1675 183.905 9.15752 185.045 6.45752C187.695 9.88752 188.915 13.6475 187.805 17.5575C185.185 26.7375 179.375 33.0875 169.935 35.5575C165.495 36.7175 160.765 35.0075 157.505 31.2775Z" fill="#4C2618"/>
<path id="Vector_12" d="M47.8252 123.628C53.6152 123.358 57.5252 120.528 60.2452 115.858C61.0452 114.478 61.8552 113.098 62.5752 111.668C63.8752 109.098 65.6952 107.118 68.2852 105.738C71.2052 104.188 73.8452 102.238 75.2552 98.7075C78.1952 102.748 79.2752 106.968 77.6452 111.438C75.0152 118.658 70.2352 124.088 62.9952 127.038C57.3652 129.338 51.4252 128.008 47.8252 123.608V123.628Z" fill="#4C2618"/>
<path id="Vector_13" d="M210.096 82.4075C215.076 77.2975 215.296 71.8075 213.386 65.9575C212.026 61.7775 211.356 57.6575 213.016 53.2975C213.956 50.8375 213.946 48.0975 212.626 45.1675C217.466 45.9575 221.136 48.1175 223.076 52.2275C226.626 59.7775 226.976 67.5875 223.096 75.1575C220.586 80.0475 216.296 82.3875 210.106 82.4075H210.096Z" fill="#4C2618"/>
<path id="Vector_14" d="M101.565 71.0777C101.405 68.8377 102.075 66.6477 103.365 64.4877C104.505 62.5877 105.145 60.3877 106.025 58.3277C108.865 51.6777 115.805 46.9177 122.495 47.0277C126.245 47.0877 127.955 49.2877 126.855 52.8877C126.055 55.5077 124.825 57.9477 122.695 59.7977C119.935 62.1977 117.645 64.8777 116.725 68.5877C116.345 70.1277 115.355 71.4977 114.135 72.5777C111.925 74.5477 109.865 76.6077 108.265 79.1677C106.955 81.2677 104.335 80.8577 103.015 78.5177C101.755 76.2877 101.505 73.8177 101.565 71.0677V71.0777Z" fill="#4C2618"/>
<path id="Vector_15" d="M136.005 61.8174C135.985 73.4174 126.065 84.8074 115.455 85.4874C113.235 85.6274 110.495 85.9274 109.535 83.4774C108.555 80.9874 110.255 78.7874 112.195 77.2774C115.675 74.5574 118.575 71.5074 119.825 67.1174C120.245 65.6374 121.365 64.4574 122.545 63.5174C125.475 61.2074 127.405 58.2674 128.655 54.7974C129.085 53.6174 129.465 52.1174 130.975 52.0274C132.395 51.9374 133.175 53.2174 133.895 54.2574C135.505 56.5774 136.135 59.1774 135.995 61.8274L136.005 61.8174Z" fill="#4C2618"/>
</g>
</svg>
