<svg width="40" height="40" viewBox="0 0 40 40" fill="none" xmlns="http://www.w3.org/2000/svg">
<path d="M23.6595 12.3096L22.8005 12.868L23.6901 13.3763C26.9491 15.2386 29.3752 19.6657 29.3752 25.0003C29.3752 28.5437 28.2872 31.7427 26.5627 34.042C24.8378 36.3418 22.5078 37.7087 20.0002 37.7087C17.4926 37.7087 15.1625 36.3418 13.4377 34.042C11.7132 31.7427 10.6252 28.5437 10.6252 25.0003C10.6252 19.6657 13.0512 15.2386 16.3103 13.3763L17.1998 12.868L16.3408 12.3096C14.537 11.1371 12.4875 10.8346 10.9255 10.8129C10.5482 10.8076 10.1961 10.8187 9.87868 10.8387C10.9775 9.75936 12.0974 9.20469 13.1592 8.96403C14.574 8.64334 15.9523 8.86541 17.1359 9.25992L18.8262 9.82335L17.8582 8.32746C16.8302 6.73874 15.2563 5.96617 13.9913 5.5889C13.7657 5.52161 13.548 5.46628 13.3424 5.42078C14.0961 5.02317 14.8023 4.87533 15.4377 4.87533C16.4308 4.87533 17.3121 5.23719 17.9868 5.68702L18.612 6.10381L18.908 5.41319C19.264 4.58253 19.6125 3.77016 20.0157 2.96437C20.315 3.52842 20.7025 4.3109 21.0899 5.24071L21.3589 5.88636L21.9704 5.54667C22.666 5.1602 23.5133 4.83638 24.4675 4.85438C25.054 4.86545 25.7075 5.00607 26.4162 5.37298C26.2662 5.40251 26.1103 5.43721 25.9502 5.47797C24.7239 5.79012 23.1864 6.47466 22.1518 7.97958L22.0418 8.13954V8.33366V8.66699V9.53413L22.8645 9.25992C24.048 8.86541 25.4264 8.64334 26.8412 8.96403C27.9029 9.20469 29.0228 9.75936 30.1216 10.8387C29.8042 10.8187 29.4522 10.8076 29.0748 10.8129C27.5128 10.8346 25.4634 11.1371 23.6595 12.3096ZM26.9398 28.1519L27.0103 27.87L26.8402 27.6344L24.9559 25.0254L26.9826 22.5643L27.1829 22.3211L27.1065 22.0154C27.0145 21.6473 26.8789 21.2859 26.7578 20.9629L26.752 20.9475C26.6246 20.6077 26.513 20.3081 26.4398 20.0154L26.1313 18.7812L25.3429 19.7797L23.3462 22.3089L21.617 20.0033L23.9973 16.8791L24.2675 16.5245L24.0202 16.1536C23.5987 15.5214 22.976 15.1113 22.3645 14.9074L21.9413 14.7663L21.6704 15.1207L20.0002 17.3048L18.33 15.1207L17.9742 14.6554L17.4868 14.9803C17.2142 15.1621 16.988 15.343 16.7831 15.5069L16.7764 15.5123C16.5664 15.6803 16.3779 15.8307 16.1535 15.9803L15.5996 16.3496L16.003 16.8791L18.3834 20.0033L16.6843 22.2687L14.8455 19.6419L14.2438 18.7823L13.7745 19.7208C13.4103 20.4491 13.2296 21.1721 13.0663 21.8253L13.0605 21.8487L12.99 22.1307L13.1602 22.3663L15.0445 24.9753L13.0177 27.4363L12.8174 27.6796L12.8938 27.9852C12.9858 28.3533 13.1214 28.7148 13.2425 29.0377L13.2483 29.0531C13.3757 29.3929 13.4873 29.6925 13.5605 29.9852L13.8691 31.2195L14.6574 30.2209L16.6541 27.6917L18.3834 29.9974L16.003 33.1215L15.7329 33.4761L15.9801 33.847C16.4016 34.4793 17.0243 34.8894 17.6359 35.0933L18.059 35.2343L18.33 34.88L20.0002 32.6959L21.6704 34.88L22.0262 35.3453L22.5135 35.0204C22.7862 34.8386 23.0123 34.6577 23.2172 34.4937L23.2239 34.4884C23.4339 34.3204 23.6225 34.17 23.8469 34.0204L24.4008 33.6511L23.9973 33.1215L21.617 29.9974L23.316 27.7319L25.1548 30.3587L25.7566 31.2184L26.2258 30.2798C26.59 29.5516 26.7707 28.8285 26.934 28.1753L26.9398 28.1519ZM18.2814 25.0003L20.0002 22.7087L21.7189 25.0003L20.0002 27.292L18.2814 25.0003Z" stroke="#4D2212" stroke-width="1.25"/>
</svg>
