<svg width="22" height="22" viewBox="0 0 22 22" fill="none" xmlns="http://www.w3.org/2000/svg">
<path id="Vector" d="M21 18.015L21 18.0152C21.536 19.2102 21.8212 20.4757 21.85 21.7767L21.85 21.7773C21.8502 21.7856 21.8487 21.794 21.8453 21.8021C21.8419 21.8103 21.8366 21.8183 21.8291 21.8255L21.9335 21.9333L21.8291 21.8255C21.8217 21.8328 21.8123 21.8389 21.8014 21.8433L21.8568 21.9827L21.8014 21.8433C21.7904 21.8477 21.7783 21.85 21.7659 21.85H21.7659H20.0106C19.9549 21.85 19.9273 21.8129 19.9265 21.7808L19.9265 21.7803C19.8668 19.6055 18.9421 17.5699 17.3109 16.0289C15.6235 14.4347 13.3834 13.5585 11 13.5585C8.61661 13.5585 6.37651 14.4347 4.68905 16.0289C3.05788 17.5699 2.13316 19.6055 2.07352 21.7803L2.07351 21.7807C2.07275 21.8113 2.04377 21.85 1.98942 21.85H0.234114H0.234068C0.221689 21.85 0.20962 21.8477 0.198645 21.8433C0.187679 21.8389 0.178312 21.8328 0.170869 21.8255L0.170864 21.8255C0.163438 21.8183 0.1581 21.8103 0.154702 21.8021L0.0161805 21.8597L0.1547 21.8021C0.151315 21.794 0.149802 21.7856 0.150023 21.7773L0.150042 21.7764C0.176487 20.4841 0.464901 19.2083 0.999914 18.018L0.999993 18.0179C1.54469 16.8018 2.33373 15.6964 3.32396 14.7629L3.32423 14.7627C4.3195 13.8197 5.47932 13.0809 6.77258 12.5655L6.77269 12.5657L6.77988 12.5623C6.7805 12.5621 6.78195 12.5616 6.7847 12.5606L6.78567 12.5603C6.79114 12.5583 6.8033 12.554 6.81623 12.5479L7.05278 12.4362L6.83683 12.2885C5.05141 11.0674 3.89473 9.0861 3.89473 6.85427C3.89473 3.1586 7.06674 0.15 11 0.15C14.9333 0.15 18.1053 3.1586 18.1053 6.85427C18.1053 9.08612 16.9486 11.0674 15.1633 12.2856L14.9469 12.4333L15.1838 12.5452C15.1967 12.5513 15.2089 12.5556 15.2143 12.5575L15.2153 12.5578C15.2169 12.5584 15.218 12.5588 15.2188 12.5591L15.2188 12.5592L15.2273 12.5626C16.5167 13.0781 17.6877 13.8244 18.6758 14.7599L18.6761 14.7602C19.6672 15.693 20.4563 16.7985 21 18.015ZM1.98942 22C2.11814 22 2.22054 21.9033 2.22346 21.7844L0.0665186 21.9333C0.0883295 21.9544 0.114395 21.9712 0.143178 21.9827C0.171961 21.9941 0.202881 22 0.234114 22H1.98942ZM7.33957 10.3241C8.31903 11.2494 9.62003 11.758 11 11.758C12.38 11.758 13.681 11.2494 14.6604 10.3241C15.6402 9.39851 16.1819 8.16553 16.1819 6.85427C16.1819 5.54301 15.6402 4.31003 14.6604 3.38443C13.681 2.4591 12.38 1.9505 11 1.9505C9.62003 1.9505 8.31903 2.4591 7.33957 3.38443C6.35982 4.31003 5.81812 5.54301 5.81812 6.85427C5.81812 8.16553 6.35982 9.39851 7.33957 10.3241Z" fill="#4D2212" stroke="white" stroke-width="0.3"/>
</svg>
