<svg width="40" height="40" viewBox="0 0 40 40" fill="none" xmlns="http://www.w3.org/2000/svg">
<mask id="path-1-inside-1_1405_731" fill="white">
<path fill-rule="evenodd" clip-rule="evenodd" d="M13.295 3.00036C13.0833 3.01345 12.8821 3.09567 12.7229 3.2341C12.2023 3.03577 11.6947 2.96494 11.2429 3.3701C10.546 3.28085 10.3209 3.46502 10.1502 3.68177C9.99678 3.67752 9.003 3.52593 8.54842 4.19743C7.40407 4.06284 7.04413 4.86325 7.45426 5.60558C7.22051 5.96399 6.97816 6.3139 7.52309 6.99531C7.33093 7.37498 7.45139 7.78581 7.90598 8.28447C7.78552 8.81713 8.02213 9.19254 8.44517 9.48579C8.3663 10.2154 9.12203 10.6404 9.34717 10.7919C9.43321 11.2169 9.61533 11.6193 10.48 11.8403C10.622 12.4735 11.1397 12.584 11.643 12.7172C9.981 13.6706 8.55559 14.9243 8.56563 18.0055L8.32184 18.4348C6.41746 19.5794 4.70237 23.2599 7.38399 26.2519C7.55894 27.1869 7.85148 27.8583 8.11247 28.6035C8.50396 31.6026 11.058 33.0093 11.7305 33.175C12.7171 33.9174 13.7697 34.62 15.1908 35.1144C16.5316 36.4801 17.9814 37 19.5 37C21.0187 37 22.4685 36.4801 23.8093 35.1144C25.2318 34.6214 26.283 33.9174 27.2696 33.1736C27.9436 33.0079 30.4961 31.6011 30.8876 28.6035C31.1486 27.8583 31.4411 27.1869 31.6161 26.2519C34.2977 23.2599 32.5826 19.5794 30.6768 18.4348L30.4344 18.0055C30.4445 14.9243 29.0191 13.6706 27.357 12.7172C27.8589 12.584 28.3781 12.4735 28.5215 11.8403C29.3847 11.6193 29.5669 11.2169 29.6543 10.7919C29.8795 10.6404 30.6338 10.2154 30.5549 9.48579C30.9779 9.19254 31.2146 8.81713 31.0941 8.28447C31.5501 7.78581 31.6706 7.37498 31.477 6.99531C32.0219 6.31532 31.781 5.96399 31.5472 5.607C31.9559 4.86184 31.596 4.06284 30.4531 4.19743C29.9971 3.52593 29.0047 3.67752 28.8513 3.68035C28.6792 3.46502 28.4541 3.28085 27.7571 3.36869C27.3054 2.96636 26.7978 3.03577 26.2772 3.2341C26.1184 3.09596 25.9177 3.01375 25.7065 3.00036C25.3738 2.99044 25.0899 3.19019 24.7844 3.28652C24.0344 3.04569 23.8652 3.37294 23.4967 3.50752C22.6807 3.33752 22.4326 3.7101 22.0411 4.10251L21.5822 4.09259C20.3518 4.80942 19.7438 6.26716 19.5 6.26716C19.2563 6.26716 18.6482 4.80942 17.4164 4.09259L16.959 4.10109C16.5689 3.7101 16.3194 3.33752 15.5034 3.50752C15.1349 3.37294 14.9657 3.04427 14.2171 3.28652C13.9102 3.19019 13.6263 2.99044 13.295 3.00036ZM13.338 3.8631C13.9633 4.09118 14.2888 4.38726 14.6287 4.67767C14.7434 4.52467 14.9183 4.41134 14.7032 4.04018C15.1478 4.29518 15.4833 4.59267 15.7314 4.92559C16.0053 4.75275 15.892 4.51901 15.8935 4.30084C16.3552 4.67201 16.6506 5.06583 17.0091 5.45116C17.0808 5.39875 17.1425 5.22167 17.1984 4.944C18.2998 5.99799 19.8542 8.65563 17.5985 9.71104C15.6784 8.14705 13.3854 7.00948 10.8472 6.15666C14.1124 7.81981 16.0125 9.16421 17.0522 10.3103C16.5201 12.4211 13.7396 12.5203 12.7229 12.4608C12.9308 12.3644 13.1043 12.2483 13.1674 12.0712C12.9107 11.8913 12.0058 12.0528 11.3749 11.7028C11.6187 11.6518 11.7319 11.6051 11.8452 11.428C11.2487 11.241 10.6062 11.0767 10.2277 10.765C10.4327 10.7679 10.622 10.8118 10.8873 10.6304C10.3538 10.3457 9.78311 10.1204 9.34143 9.68412C9.6182 9.67845 9.91504 9.68129 10.0011 9.5807C9.5431 9.30505 9.1249 8.96958 8.75778 8.58338C9.14497 8.63013 9.30558 8.59188 9.40023 8.52671C9.03025 8.1513 8.56419 7.83681 8.34048 7.37639C8.62729 7.47414 8.88971 7.50814 9.079 7.36506C8.95281 7.08456 8.41362 6.92023 8.10387 6.26574C8.40645 6.29407 8.7291 6.3309 8.7922 6.26574C8.6531 5.70191 8.41362 5.38458 8.17701 5.05592C8.82375 5.046 9.80319 5.05733 9.75873 5.0035L9.35864 4.59976C9.98961 4.43259 10.6378 4.62809 11.1067 4.77259C11.3175 4.60967 11.101 4.40001 10.8443 4.18751C11.3806 4.25834 11.8667 4.38017 12.3056 4.54876C12.5393 4.33909 12.1507 4.13226 11.9643 3.92118C12.7931 4.07701 13.1473 4.29376 13.4958 4.51192C13.7496 4.27251 13.5101 4.06993 13.338 3.86026M25.662 3.86026C25.4899 4.06851 25.2505 4.27109 25.5043 4.51192C25.8542 4.29234 26.207 4.07559 27.0358 3.91976C26.8494 4.12943 26.4608 4.33626 26.6945 4.54592C27.1658 4.36859 27.6569 4.24732 28.1572 4.18468C27.8991 4.39717 27.684 4.60684 27.8934 4.76975C28.3637 4.62526 29.0105 4.42976 29.6429 4.59692L29.2413 5.00067C29.1983 5.0545 30.1763 5.04317 30.8231 5.05308C30.5865 5.38175 30.3484 5.69908 30.2064 6.26291C30.271 6.32807 30.5936 6.29124 30.8948 6.26291C30.5865 6.9174 30.0473 7.08173 29.9211 7.36223C30.1104 7.50531 30.3728 7.47131 30.6596 7.37356C30.4373 7.83397 29.9713 8.14847 29.6013 8.52246C29.6945 8.58905 29.8565 8.6273 30.2423 8.58055C29.8756 8.96665 29.4579 9.30211 29.0004 9.57787C29.0865 9.67704 29.3833 9.67562 29.6601 9.68129C29.2155 10.1162 28.6477 10.3429 28.1128 10.6276C28.3795 10.8089 28.5688 10.765 28.7724 10.7622C28.3938 11.0739 27.7528 11.2382 27.1563 11.4252C27.2696 11.6023 27.3829 11.649 27.6252 11.6986C26.9942 12.0499 26.0894 11.8884 25.8341 12.0669C25.8958 12.244 26.0693 12.3616 26.2787 12.4579C25.2605 12.516 22.4814 12.4168 21.9479 10.3074C22.989 9.15996 24.8877 7.81697 28.1544 6.15382C25.6133 7.00665 23.3217 8.14422 21.403 9.7082C19.1458 8.65421 20.7003 5.99657 21.8016 4.94117C21.859 5.21883 21.9192 5.3945 21.9924 5.44833C22.3509 5.063 22.6448 4.66917 23.1066 4.29801C23.1066 4.51617 22.9947 4.75134 23.2701 4.92275C23.5167 4.58984 23.8523 4.29093 24.2968 4.03876C24.0817 4.40709 24.2581 4.52184 24.3728 4.67626C24.7113 4.38301 25.0368 4.08834 25.662 3.86026ZM19.5 12.5911C21.4489 12.5911 23.0736 13.8987 23.0765 14.6679C23.0822 15.6312 21.6511 16.6229 19.5258 16.6484H19.4742C17.349 16.6229 15.9179 15.6326 15.9236 14.6679C15.9279 13.8987 17.5526 12.5911 19.5 12.5911ZM14.0321 13.2243H14.1526C14.4681 13.2243 14.7936 13.2527 15.1234 13.3079C16.2376 13.4921 9.78885 19.0567 9.68846 17.8157C9.59955 14.9781 11.5211 13.264 14.0335 13.2243M24.8489 13.2243H24.9694C27.4804 13.264 29.402 14.9781 29.3145 17.8143C29.2141 19.0567 22.7653 13.4935 23.8781 13.3079C24.2079 13.2512 24.5334 13.2272 24.8489 13.2243ZM15.0617 16.7645C15.4332 16.7617 15.8089 16.8155 16.176 16.9374C18.1305 17.5862 19.1186 19.8458 18.3844 21.9807C17.6487 24.1184 15.4676 25.324 13.5116 24.6765C11.557 24.0277 10.569 21.7682 11.3032 19.6333C11.9012 17.8965 13.4513 16.7759 15.0603 16.7645M23.9412 16.7645C25.5502 16.7759 27.1018 17.8979 27.6983 19.6318C28.434 21.7682 27.4459 24.0277 25.4899 24.6751C23.5339 25.3254 21.3528 24.1184 20.6171 21.9821C19.8829 19.8458 20.871 17.5862 22.8255 16.9388C23.1926 16.8155 23.5698 16.7617 23.9412 16.7645ZM9.34143 19.1502C10.8644 19.1714 9.73292 26.3071 8.35196 25.7008C6.78601 24.4555 6.28123 20.8119 9.18656 19.1729C9.22496 19.1623 9.26436 19.1556 9.30415 19.153L9.34143 19.1502ZM29.6586 19.1502L29.6974 19.153C29.7367 19.1557 29.7756 19.1624 29.8135 19.1729C32.7188 20.8119 32.2155 24.457 30.6481 25.7008C29.2672 26.3071 28.1357 19.1714 29.6586 19.1502ZM19.5 24.083C20.4889 24.0753 21.4458 24.4284 22.1874 25.0746C22.9331 25.7405 23.3662 26.6896 23.3604 27.6402C23.3604 28.5752 22.9374 29.5002 22.2132 30.159C21.4675 30.8219 20.5031 31.194 19.5 31.2059C18.4971 31.1935 17.5328 30.8214 16.7869 30.159C16.4312 29.8392 16.1458 29.4506 15.9485 29.0173C15.7511 28.584 15.646 28.1153 15.6397 27.6402C15.6437 27.1557 15.7501 26.6773 15.9521 26.2357C16.1541 25.7942 16.4472 25.3992 16.8127 25.076C17.554 24.4294 18.5111 24.0762 19.5 24.0844M10.5145 25.9501C11.5226 25.9303 12.763 26.7165 13.7668 27.8668C14.8854 29.1985 15.3959 31.5402 14.4623 32.2301C13.5775 32.7571 11.4294 32.539 9.905 30.3743C8.87537 28.5582 9.01017 26.7094 9.73292 26.1669C9.9681 26.0252 10.232 25.9558 10.5145 25.9501ZM28.3895 25.9501H28.4856C28.7681 25.9558 29.0305 26.0238 29.2686 26.1669C29.9899 26.7094 30.1247 28.5582 29.0965 30.3743C27.5707 32.539 25.4225 32.7571 24.5392 32.2301C23.6042 31.5402 24.1133 29.1985 25.2333 27.8668C26.2055 26.7519 27.3986 25.9785 28.3895 25.9501ZM19.5 32.3307C21.0631 32.3137 23.3862 32.964 23.3576 33.7927C23.3819 34.3664 21.4761 36.0225 19.533 35.9403H19.4685C17.524 36.0225 15.6181 34.3679 15.644 33.7927C15.6153 32.964 17.9384 32.3137 19.5015 32.3307"/>
</mask>
<path d="M13.295 3.00036L13.2576 1.75092L13.2377 1.75151L13.2179 1.75274L13.295 3.00036ZM12.7229 3.2341L12.2778 4.40219L12.9778 4.66888L13.543 4.17741L12.7229 3.2341ZM11.2429 3.3701L11.0842 4.60998L11.6517 4.68265L12.0776 4.30063L11.2429 3.3701ZM10.1502 3.68177L10.1156 4.93129L10.7437 4.94868L11.1324 4.45501L10.1502 3.68177ZM8.54842 4.19743L8.40242 5.43887L9.15738 5.52766L9.58353 4.89817L8.54842 4.19743ZM7.45426 5.60558L8.50128 6.28841L8.91182 5.65891L8.54837 5.00109L7.45426 5.60558ZM7.52309 6.99531L8.63838 7.55979L9.00143 6.84249L8.49932 6.21462L7.52309 6.99531ZM7.90598 8.28447L9.12519 8.56018L9.26901 7.92421L8.82974 7.44235L7.90598 8.28447ZM8.44517 9.48579L9.68793 9.62014L9.76776 8.88165L9.1573 8.45848L8.44517 9.48579ZM9.34717 10.7919L10.5723 10.5439L10.4706 10.0414L10.0453 9.75505L9.34717 10.7919ZM10.48 11.8403L11.6998 11.5668L11.5321 10.819L10.7896 10.6292L10.48 11.8403ZM11.643 12.7172L12.265 13.8014L14.9049 12.2871L11.9627 11.5087L11.643 12.7172ZM8.56563 18.0055L9.65256 18.6228L9.8167 18.3338L9.81562 18.0015L8.56563 18.0055ZM8.32184 18.4348L8.9658 19.5061L9.24684 19.3372L9.40878 19.0521L8.32184 18.4348ZM7.38399 26.2519L8.61267 26.022L8.54832 25.6781L8.31483 25.4176L7.38399 26.2519ZM8.11247 28.6035L9.35196 28.4417L9.33515 28.3129L9.29221 28.1903L8.11247 28.6035ZM11.7305 33.175L12.482 32.1762L12.2778 32.0225L12.0296 31.9614L11.7305 33.175ZM15.1908 35.1144L16.0828 34.2387L15.8778 34.03L15.6015 33.9338L15.1908 35.1144ZM23.8093 35.1144L23.4 33.9334L23.1228 34.0294L22.9173 34.2387L23.8093 35.1144ZM27.2696 33.1736L26.9711 31.9598L26.722 32.021L26.5171 32.1755L27.2696 33.1736ZM30.8876 28.6035L29.7079 28.1903L29.6649 28.3129L29.6481 28.4416L30.8876 28.6035ZM31.6161 26.2519L30.6852 25.4176L30.4517 25.6781L30.3874 26.022L31.6161 26.2519ZM30.6768 18.4348L29.5883 19.0493L29.7505 19.3365L30.0332 19.5064L30.6768 18.4348ZM30.4344 18.0055L29.1845 18.0015L29.1834 18.3321L29.346 18.6201L30.4344 18.0055ZM27.357 12.7172L27.0365 11.509L24.0979 12.2886L26.7351 13.8014L27.357 12.7172ZM28.5215 11.8403L28.2115 10.6293L27.4711 10.8188L27.3023 11.5642L28.5215 11.8403ZM29.6543 10.7919L28.9562 9.75505L28.5329 10.0401L28.43 10.5399L29.6543 10.7919ZM30.5549 9.48579L29.8428 8.45848L29.2323 8.88165L29.3121 9.62014L30.5549 9.48579ZM31.0941 8.28447L30.1717 7.44091L29.7308 7.923L29.8749 8.56018L31.0941 8.28447ZM31.477 6.99531L30.5015 6.21363L29.9966 6.84376L30.3634 7.56314L31.477 6.99531ZM31.5472 5.607L30.4513 5.00589L30.0904 5.66387L30.5015 6.29172L31.5472 5.607ZM30.4531 4.19743L29.419 4.89969L29.8454 5.52762L30.5993 5.43885L30.4531 4.19743ZM28.8513 3.68035L27.8748 4.46071L28.259 4.9415L28.8744 4.93014L28.8513 3.68035ZM27.7571 3.36869L26.9257 4.30212L27.3499 4.6799L27.9134 4.60888L27.7571 3.36869ZM26.2772 3.2341L25.4569 4.17728L26.0222 4.66892L26.7223 4.40219L26.2772 3.2341ZM25.7065 3.00036L25.7856 1.75286L25.7647 1.75154L25.7437 1.75091L25.7065 3.00036ZM24.7844 3.28652L24.4022 4.47667L24.781 4.59829L25.1604 4.47864L24.7844 3.28652ZM23.4967 3.50752L23.2417 4.73124L23.5906 4.80394L23.9254 4.68168L23.4967 3.50752ZM22.0411 4.10251L22.0141 5.35222L22.5485 5.36377L22.926 4.98535L22.0411 4.10251ZM21.5822 4.09259L21.6092 2.84289L21.2572 2.83528L20.953 3.01253L21.5822 4.09259ZM17.4164 4.09259L18.0451 3.01221L17.7428 2.83631L17.3932 2.84281L17.4164 4.09259ZM16.959 4.10109L16.074 4.98391L16.45 5.36077L16.9822 5.35088L16.959 4.10109ZM15.5034 3.50752L15.0746 4.68168L15.4094 4.80394L15.7584 4.73124L15.5034 3.50752ZM14.2171 3.28652L13.8427 4.47914L14.2229 4.59847L14.602 4.47579L14.2171 3.28652ZM14.6287 4.67767L13.8166 5.62798L14.8295 6.49348L15.6288 5.42756L14.6287 4.67767ZM14.7032 4.04018L15.3252 2.9559L11.288 0.64013L13.6217 4.66695L14.7032 4.04018ZM15.7314 4.92559L14.7291 5.6725L15.4203 6.59998L16.3985 5.98272L15.7314 4.92559ZM15.8935 4.30084L16.6766 3.32657L14.6605 1.70601L14.6435 4.29263L15.8935 4.30084ZM17.0091 5.45116L16.094 6.30262L16.8504 7.11562L17.7468 6.46027L17.0091 5.45116ZM17.1984 4.944L18.0627 4.04092L16.4216 2.47034L15.973 4.69719L17.1984 4.944ZM17.5985 9.71104L16.8091 10.6802L17.4175 11.1758L18.1283 10.8432L17.5985 9.71104ZM10.8472 6.15666L11.2453 4.97175L10.2798 7.2705L10.8472 6.15666ZM17.0522 10.3103L18.2643 10.6158L18.4279 9.96642L17.978 9.47042L17.0522 10.3103ZM12.7229 12.4608L12.1974 11.3266L12.6498 13.7086L12.7229 12.4608ZM13.1674 12.0712L14.3449 12.4907L14.6644 11.594L13.8848 11.0476L13.1674 12.0712ZM11.3749 11.7028L11.1189 10.4793L7.83136 11.1671L10.7686 12.796L11.3749 11.7028ZM11.8452 11.428L12.8982 12.1016L13.7793 10.7243L12.2191 10.2352L11.8452 11.428ZM10.2277 10.765L10.2449 9.51514L6.6829 9.46593L9.43319 11.7301L10.2277 10.765ZM10.8873 10.6304L11.5927 11.6624L13.2951 10.4988L11.4759 9.52771L10.8873 10.6304ZM9.34143 9.68412L9.31584 8.43438L6.35901 8.49492L8.46295 10.5734L9.34143 9.68412ZM10.0011 9.5807L10.951 10.3933L11.9108 9.27119L10.6457 8.50973L10.0011 9.5807ZM8.75778 8.58338L8.90762 7.34239L5.45752 6.92582L7.85179 9.44459L8.75778 8.58338ZM9.40023 8.52671L10.1091 9.55627L11.3368 8.71096L10.2905 7.6493L9.40023 8.52671ZM8.34048 7.37639L8.74373 6.19322L5.90592 5.22604L7.21617 7.92268L8.34048 7.37639ZM9.079 7.36506L9.83275 8.36224L10.6279 7.7612L10.219 6.85221L9.079 7.36506ZM8.10387 6.26574L8.22041 5.02118L6.0351 4.81655L6.97402 6.80046L8.10387 6.26574ZM8.7922 6.26574L9.69023 7.13525L10.1716 6.63814L10.0058 5.96633L8.7922 6.26574ZM8.17701 5.05592L8.15784 3.80606L5.7634 3.84278L7.16255 5.78625L8.17701 5.05592ZM9.75873 5.0035L10.7226 4.20757L10.6865 4.16389L10.6466 4.12365L9.75873 5.0035ZM9.35864 4.59976L9.03852 3.39144L6.94983 3.94481L8.47075 5.47961L9.35864 4.59976ZM11.1067 4.77259L10.7386 5.96716L11.3581 6.15807L11.8711 5.76164L11.1067 4.77259ZM10.8443 4.18751L11.008 2.94827L6.6998 2.37929L10.0472 5.15038L10.8443 4.18751ZM12.3056 4.54876L11.8573 5.71561L12.571 5.98982L13.1402 5.47927L12.3056 4.54876ZM11.9643 3.92118L12.1952 2.6927L8.61752 2.02007L11.0273 4.74864L11.9643 3.92118ZM13.4958 4.51192L12.8325 5.57141L13.651 6.08386L14.3535 5.42124L13.4958 4.51192ZM25.662 3.86026L26.6256 4.65651L29.5573 1.10873L25.2336 2.68596L25.662 3.86026ZM25.5043 4.51192L24.6439 5.41871L25.3474 6.08615L26.1687 5.57071L25.5043 4.51192ZM27.0358 3.91976L27.97 4.75035L30.4021 2.01498L26.8049 2.69129L27.0358 3.91976ZM26.6945 4.54592L25.8599 5.47644L26.4246 5.98302L27.1347 5.71585L26.6945 4.54592ZM28.1572 4.18468L28.9517 5.14973L32.2814 2.40859L28.0019 2.94436L28.1572 4.18468ZM27.8934 4.76975L27.1257 5.75628L27.6389 6.15559L28.2604 5.96464L27.8934 4.76975ZM29.6429 4.59692L30.5292 5.47836L32.057 3.94212L29.9623 3.38843L29.6429 4.59692ZM29.2413 5.00067L28.355 4.11923L28.3072 4.16732L28.2649 4.2203L29.2413 5.00067ZM30.8231 5.05308L31.8375 5.78342L33.2367 3.83995L30.8422 3.80323L30.8231 5.05308ZM30.2064 6.26291L28.9943 5.95769L28.8221 6.64144L29.3182 7.14245L30.2064 6.26291ZM30.8948 6.26291L32.0256 6.7956L32.9595 4.81313L30.7777 5.0184L30.8948 6.26291ZM29.9211 7.36223L28.7811 6.84937L28.3722 7.75836L29.1673 8.3594L29.9211 7.36223ZM30.6596 7.37356L31.7853 7.91701L33.0841 5.22663L30.2563 6.19039L30.6596 7.37356ZM29.6013 8.52246L28.7126 7.64337L27.6806 8.68663L28.8747 9.53962L29.6013 8.52246ZM30.2423 8.58055L31.1487 9.44133L33.5417 6.92155L30.0919 7.33963L30.2423 8.58055ZM29.0004 9.57787L28.3551 8.50732L27.0823 9.27455L28.0563 10.3971L29.0004 9.57787ZM29.6601 9.68129L30.5342 10.5748L32.6627 8.4925L29.6857 8.43155L29.6601 9.68129ZM28.1128 10.6276L27.5254 9.52422L25.6976 10.4972L27.41 11.6613L28.1128 10.6276ZM28.7724 10.7622L29.5669 11.7272L32.3176 9.46274L28.755 9.51231L28.7724 10.7622ZM27.1563 11.4252L26.7824 10.2324L25.2222 10.7215L26.1033 12.0988L27.1563 11.4252ZM27.6252 11.6986L28.2333 12.7907L31.18 11.15L27.8758 10.474L27.6252 11.6986ZM25.8341 12.0669L25.1178 11.0425L24.3426 11.5846L24.6536 12.478L25.8341 12.0669ZM26.2787 12.4579L26.3498 13.7059L26.8011 11.3224L26.2787 12.4579ZM21.9479 10.3074L21.0222 9.46752L20.5717 9.964L20.7361 10.6139L21.9479 10.3074ZM28.1544 6.15382L28.7215 7.26776L27.7566 4.96878L28.1544 6.15382ZM21.403 9.7082L20.8741 10.8408L21.5848 11.1727L22.1928 10.6771L21.403 9.7082ZM21.8016 4.94117L23.0258 4.68828L22.5686 2.47493L20.9368 4.03867L21.8016 4.94117ZM21.9924 5.44833L21.2514 6.45502L22.1486 7.11547L22.9075 6.29979L21.9924 5.44833ZM23.1066 4.29801H24.3566V1.68949L22.3235 3.32374L23.1066 4.29801ZM23.2701 4.92275L22.6094 5.98391L23.5881 6.59322L24.2745 5.66688L23.2701 4.92275ZM24.2968 4.03876L25.3762 4.66913L27.7164 0.661931L23.6801 2.9515L24.2968 4.03876ZM24.3728 4.67626L23.3695 5.42172L24.173 6.50335L25.1914 5.62095L24.3728 4.67626ZM23.0765 14.6679L21.8265 14.6726L21.8265 14.6753L23.0765 14.6679ZM19.5258 16.6484V17.8984H19.5333L19.5408 17.8983L19.5258 16.6484ZM19.4742 16.6484L19.4592 17.8983L19.4667 17.8984H19.4742V16.6484ZM15.9236 14.6679L17.1736 14.6753L17.1736 14.6749L15.9236 14.6679ZM15.1234 13.3079L14.9169 14.5407L14.9196 14.5412L15.1234 13.3079ZM9.68846 17.8157L8.43908 17.8548L8.44004 17.8857L8.44253 17.9165L9.68846 17.8157ZM24.8489 13.2243L24.8489 11.9743L24.8377 11.9744L24.8489 13.2243ZM24.9694 13.2243L24.9891 11.9745L24.9793 11.9743H24.9694V13.2243ZM29.3145 17.8143L30.5604 17.915L30.5629 17.8839L30.5639 17.8528L29.3145 17.8143ZM23.8781 13.3079L24.0837 14.5409L24.0898 14.5399L23.8781 13.3079ZM16.176 16.9374L16.5698 15.751L16.5697 15.751L16.176 16.9374ZM18.3844 21.9807L19.5663 22.3874L19.5664 22.3872L18.3844 21.9807ZM13.5116 24.6765L13.1178 25.8629L13.1188 25.8632L13.5116 24.6765ZM11.3032 19.6333L10.1213 19.2263L10.1211 19.2267L11.3032 19.6333ZM23.9412 16.7645L23.9317 18.0145L23.9324 18.0145L23.9412 16.7645ZM27.6983 19.6318L26.5163 20.0385L26.5164 20.0388L27.6983 19.6318ZM25.4899 24.6751L25.0972 23.4884L25.0956 23.489L25.4899 24.6751ZM20.6171 21.9821L19.435 22.3884L19.4353 22.3891L20.6171 21.9821ZM22.8255 16.9388L23.2186 18.1254L23.2234 18.1238L22.8255 16.9388ZM9.34143 19.1502L9.35887 17.9003L9.3027 17.8995L9.24668 17.9038L9.34143 19.1502ZM8.35196 25.7008L7.57396 26.6792L7.70091 26.7801L7.84943 26.8453L8.35196 25.7008ZM9.18656 19.1729L8.85453 17.9678L8.70629 18.0086L8.57236 18.0842L9.18656 19.1729ZM9.30415 19.153L9.38587 20.4004L9.3989 20.3994L9.30415 19.153ZM29.6586 19.1502L29.7499 17.9035L29.6956 17.8995L29.6412 17.9003L29.6586 19.1502ZM29.6974 19.153L29.6061 20.3997L29.6119 20.4001L29.6974 19.153ZM29.8135 19.1729L30.4277 18.0842L30.2944 18.0089L30.1468 17.9681L29.8135 19.1729ZM30.6481 25.7008L31.1506 26.8453L31.2986 26.7804L31.4251 26.6799L30.6481 25.7008ZM22.1874 25.0746L23.0199 24.1422L23.0143 24.1372L23.0086 24.1322L22.1874 25.0746ZM23.3604 27.6402L22.1104 27.6326V27.6402H23.3604ZM22.2132 30.159L23.0437 31.0932L23.049 31.0885L23.0543 31.0837L22.2132 30.159ZM19.5 31.2059L19.4846 32.4558L19.4997 32.456L19.5148 32.4558L19.5 31.2059ZM16.7869 30.159L15.9511 31.0885L15.9568 31.0936L16.7869 30.159ZM15.6397 27.6402L14.3897 27.6298L14.3896 27.6434L14.3898 27.6569L15.6397 27.6402ZM16.8127 25.076L15.991 24.134L15.9847 24.1396L16.8127 25.076ZM10.5145 25.9501L10.4899 24.7004L10.4894 24.7004L10.5145 25.9501ZM13.7668 27.8668L14.724 27.0629L14.7164 27.0539L14.7086 27.045L13.7668 27.8668ZM14.4623 32.2301L15.102 33.3041L15.1553 33.2723L15.2052 33.2354L14.4623 32.2301ZM9.905 30.3743L8.8176 30.9908L8.84777 31.044L8.88299 31.094L9.905 30.3743ZM9.73292 26.1669L9.08793 25.0961L9.03339 25.129L8.98246 25.1672L9.73292 26.1669ZM28.3895 25.9501V24.7001H28.3717L28.3538 24.7006L28.3895 25.9501ZM28.4856 25.9501L28.5107 24.7004L28.4981 24.7001H28.4856V25.9501ZM29.2686 26.1669L30.02 25.1679L29.9682 25.1289L29.9125 25.0955L29.2686 26.1669ZM29.0965 30.3743L30.1182 31.0945L30.1538 31.044L30.1843 30.9902L29.0965 30.3743ZM24.5392 32.2301L23.797 33.236L23.8462 33.2723L23.8988 33.3036L24.5392 32.2301ZM25.2333 27.8668L24.2912 27.0453L24.2838 27.0537L24.2766 27.0623L25.2333 27.8668ZM23.3576 33.7927L22.1083 33.7495L22.1066 33.7976L22.1087 33.8458L23.3576 33.7927ZM19.533 35.9403L19.5858 34.6915L19.5594 34.6903H19.533V35.9403ZM19.4685 35.9403V34.6903H19.4421L19.4157 34.6915L19.4685 35.9403ZM15.644 33.7927L16.8927 33.8487L16.8949 33.7991L16.8932 33.7495L15.644 33.7927ZM13.2179 1.75274C12.7334 1.7827 12.2705 1.97096 11.9027 2.2908L13.543 4.17741C13.4936 4.22039 13.4333 4.24419 13.3722 4.24797L13.2179 1.75274ZM13.1679 2.06601C12.5179 1.81836 11.3997 1.55035 10.4083 2.43957L12.0776 4.30063C12.0881 4.29123 12.0793 4.30131 12.0519 4.31218C12.0247 4.32294 12.0033 4.32495 11.998 4.32512C11.9962 4.32518 12.0163 4.32435 12.0663 4.33537C12.117 4.34654 12.1855 4.36701 12.2778 4.40219L13.1679 2.06601ZM11.4017 2.13023C10.9442 2.07164 10.4868 2.08033 10.0591 2.24125C9.5947 2.41596 9.32391 2.7106 9.16808 2.90852L11.1324 4.45501C11.1469 4.43648 11.131 4.45972 11.092 4.49198C11.0718 4.50873 11.0474 4.52627 11.0195 4.54266C10.9915 4.55906 10.9643 4.57176 10.9394 4.58112C10.8891 4.60006 10.8647 4.59927 10.8852 4.59791C10.908 4.59639 10.9696 4.59531 11.0842 4.60998L11.4017 2.13023ZM10.1848 2.43224C10.2739 2.43471 9.75065 2.3835 9.28861 2.44831C8.79673 2.51731 8.02292 2.7439 7.51331 3.49668L9.58353 4.89817C9.5285 4.97946 9.47887 4.9461 9.63588 4.92407C9.70299 4.91466 9.7783 4.91262 9.85488 4.91533C9.89197 4.91665 9.9265 4.91893 9.96151 4.92159C9.96696 4.922 10.0094 4.9253 10.019 4.92602C10.034 4.92714 10.0734 4.93012 10.1156 4.93129L10.1848 2.43224ZM8.69442 2.95598C7.84133 2.85565 6.90628 3.0774 6.37438 3.88528C5.86399 4.66048 6.00317 5.56396 6.36014 6.21007L8.54837 5.00109C8.52758 4.96344 8.53899 4.96507 8.54055 5.01084C8.54224 5.06052 8.53042 5.15679 8.46244 5.26005C8.39162 5.36761 8.30299 5.41708 8.26006 5.43252C8.22648 5.4446 8.26161 5.42231 8.40242 5.43887L8.69442 2.95598ZM6.40724 4.92275C6.32954 5.04189 6.0103 5.47921 5.95284 6.05526C5.88722 6.7132 6.15672 7.28815 6.54687 7.77601L8.49932 6.21462C8.46121 6.16696 8.43911 6.13356 8.42734 6.11385C8.41569 6.09434 8.41578 6.09095 8.42021 6.10279C8.42492 6.11536 8.4332 6.14161 8.43845 6.1796C8.44379 6.21821 8.44479 6.2604 8.4405 6.30339C8.4318 6.39065 8.40536 6.442 8.40709 6.43855C8.40849 6.43576 8.41469 6.42391 8.4311 6.39737C8.43911 6.3844 8.44857 6.36951 8.46049 6.35106C8.47302 6.33165 8.48508 6.31325 8.50128 6.28841L6.40724 4.92275ZM6.40781 6.43083C6.16444 6.91168 6.12202 7.43875 6.27344 7.95015C6.41117 8.41532 6.68998 8.80601 6.98221 9.12658L8.82974 7.44235C8.75365 7.35889 8.70919 7.29819 8.68481 7.25952C8.66053 7.221 8.66317 7.21539 8.67057 7.24039C8.67903 7.26896 8.68942 7.32351 8.68327 7.39455C8.67708 7.46615 8.65676 7.52348 8.63838 7.55979L6.40781 6.43083ZM6.68676 8.00875C6.56921 8.52859 6.61592 9.05067 6.85018 9.52676C7.07176 9.97712 7.41481 10.2925 7.73304 10.5131L9.1573 8.45848C9.10794 8.42426 9.08398 8.4013 9.07566 8.39246C9.06828 8.38462 9.07922 8.39433 9.09335 8.42305C9.10857 8.45398 9.11956 8.49098 9.12329 8.52714C9.12687 8.56177 9.12174 8.57544 9.12519 8.56018L6.68676 8.00875ZM7.20241 9.35144C7.10825 10.2225 7.53317 10.8586 7.87934 11.2201C8.20607 11.5613 8.61023 11.8027 8.64906 11.8288L10.0453 9.75505C10.0218 9.73923 9.99791 9.72369 9.98003 9.71208C9.95963 9.69882 9.94388 9.68864 9.92553 9.67662C9.89081 9.65387 9.85907 9.63252 9.82815 9.61037C9.76413 9.56451 9.71705 9.52457 9.68498 9.49108C9.65234 9.45699 9.65556 9.45059 9.66659 9.47584C9.68188 9.51082 9.69382 9.56559 9.68793 9.62014L7.20241 9.35144ZM8.12202 11.04C8.18349 11.3436 8.31091 11.8079 8.69548 12.2321C9.07625 12.6522 9.58828 12.9025 10.1705 13.0513L10.7896 10.6292C10.5071 10.557 10.4957 10.4957 10.5477 10.5531C10.5714 10.5792 10.5853 10.6055 10.5902 10.6171C10.5925 10.6225 10.5851 10.607 10.5723 10.5439L8.12202 11.04ZM9.26032 12.1137C9.41287 12.7941 9.80815 13.2593 10.2928 13.544C10.6857 13.7748 11.1414 13.8775 11.3233 13.9256L11.9627 11.5087C11.8894 11.4893 11.8398 11.4766 11.782 11.4609C11.7286 11.4464 11.6865 11.4342 11.6507 11.4227C11.576 11.3988 11.5548 11.3859 11.5592 11.3885C11.5701 11.3949 11.6101 11.4215 11.6497 11.4742C11.6903 11.5282 11.7003 11.5693 11.6998 11.5668L9.26032 12.1137ZM11.0211 11.6329C10.128 12.1452 9.16684 12.8098 8.44763 13.8547C7.71481 14.9194 7.30995 16.2639 7.31563 18.0096L9.81562 18.0015C9.81127 16.6659 10.1141 15.8429 10.507 15.2721C10.9135 14.6815 11.4961 14.2425 12.265 13.8014L11.0211 11.6329ZM7.47869 17.3882L7.23491 17.8175L9.40878 19.0521L9.65256 18.6228L7.47869 17.3882ZM7.67788 17.3634C6.40811 18.1266 5.31565 19.6339 4.91517 21.3695C4.49995 23.169 4.81834 25.2621 6.45315 27.0862L8.31483 25.4176C7.26802 24.2496 7.10315 23.0065 7.35116 21.9316C7.61392 20.7929 8.33119 19.8876 8.9658 19.5061L7.67788 17.3634ZM6.15532 26.4818C6.35334 27.5401 6.7018 28.3573 6.93274 29.0167L9.29221 28.1903C9.00116 27.3593 8.76454 26.8336 8.61267 26.022L6.15532 26.4818ZM6.87299 28.7653C7.1131 30.6047 8.02001 31.9523 8.94641 32.8496C9.83689 33.7121 10.8321 34.241 11.4314 34.3887L12.0296 31.9614C12.0414 31.9643 12.0013 31.9544 11.9071 31.9124C11.8199 31.8735 11.7065 31.8161 11.5749 31.7379C11.3109 31.581 10.9955 31.3539 10.6858 31.0539C10.0692 30.4567 9.50334 29.6014 9.35196 28.4417L6.87299 28.7653ZM10.979 34.1739C12.0087 34.9487 13.1814 35.7388 14.7801 36.295L15.6015 33.9338C14.358 33.5012 13.4255 32.886 12.482 32.1762L10.979 34.1739ZM14.2988 35.9902C15.8768 37.5973 17.6489 38.25 19.5 38.25V35.75C18.314 35.75 17.1865 35.3629 16.0828 34.2387L14.2988 35.9902ZM19.5 38.25C21.3512 38.25 23.1233 37.5973 24.7012 35.9902L22.9173 34.2387C21.8136 35.3629 20.6861 35.75 19.5 35.75V38.25ZM24.2186 36.2955C25.8206 35.7403 26.9928 34.9476 28.022 34.1718L26.5171 32.1755C25.5731 32.8871 24.6431 33.5025 23.4 33.9334L24.2186 36.2955ZM27.5681 34.3875C28.1685 34.2398 29.1639 33.7107 30.0542 32.8484C30.9805 31.9512 31.887 30.604 32.1271 28.7654L29.6481 28.4416C29.4968 29.6007 28.9312 30.4556 28.3148 31.0527C28.0052 31.3526 27.6899 31.5796 27.4259 31.7364C27.2943 31.8146 27.1809 31.872 27.0937 31.9108C26.9996 31.9528 26.9594 31.9627 26.9711 31.9598L27.5681 34.3875ZM32.0673 29.0167C32.2983 28.3573 32.6467 27.5401 32.8448 26.4818L30.3874 26.022C30.2355 26.8336 29.9989 27.3593 29.7079 28.1903L32.0673 29.0167ZM32.5469 27.0862C34.1817 25.2621 34.5002 23.169 34.0847 21.3694C33.684 19.6337 32.591 18.1263 31.3204 17.3632L30.0332 19.5064C30.6684 19.8879 31.3859 20.7931 31.6488 21.9318C31.8969 23.0065 31.7321 24.2496 30.6852 25.4176L32.5469 27.0862ZM31.7653 17.8202L31.5229 17.391L29.346 18.6201L29.5883 19.0493L31.7653 17.8202ZM31.6844 18.0096C31.6901 16.2639 31.2853 14.9194 30.5524 13.8547C29.8332 12.8098 28.8721 12.1452 27.979 11.6329L26.7351 13.8014C27.504 14.2425 28.0866 14.6815 28.4931 15.2721C28.886 15.8429 29.1888 16.6659 29.1845 18.0015L31.6844 18.0096ZM27.6776 13.9254C27.8584 13.8774 28.3136 13.7747 28.7061 13.5445C29.1899 13.2607 29.5865 12.7969 29.7406 12.1163L27.3023 11.5642C27.3018 11.5665 27.3119 11.5256 27.3522 11.4722C27.3916 11.4201 27.4311 11.394 27.4413 11.388C27.4451 11.3858 27.4235 11.3988 27.3487 11.4228C27.3128 11.4343 27.2706 11.4465 27.2172 11.4611C27.159 11.4769 27.1101 11.4894 27.0365 11.509L27.6776 13.9254ZM28.8315 13.0512C29.4135 12.9022 29.9246 12.6517 30.305 12.2321C30.6886 11.8089 30.8165 11.3459 30.8787 11.0439L28.43 10.5399C28.4169 10.6038 28.4093 10.62 28.4113 10.6154C28.4158 10.6046 28.4293 10.5789 28.4527 10.5531C28.5043 10.4962 28.4927 10.5573 28.2115 10.6293L28.8315 13.0512ZM30.3525 11.8288C30.3922 11.8021 30.7956 11.561 31.1222 11.2194C31.4682 10.8575 31.8917 10.2215 31.7977 9.35144L29.3121 9.62014C29.3063 9.56605 29.3181 9.5116 29.3333 9.47673C29.3443 9.45156 29.3475 9.4579 29.3151 9.49186C29.2832 9.52524 29.2363 9.56507 29.1725 9.61083C29.1417 9.63292 29.1101 9.65423 29.0755 9.67692C29.0572 9.68886 29.0414 9.69909 29.0212 9.71226C29.0034 9.72383 28.9796 9.73932 28.9562 9.75505L30.3525 11.8288ZM31.267 10.5131C31.5853 10.2925 31.9283 9.97712 32.1499 9.52677C32.3841 9.05068 32.4309 8.52859 32.3133 8.00875L29.8749 8.56018C29.8783 8.57544 29.8732 8.56177 29.8768 8.52714C29.8805 8.49098 29.8915 8.45398 29.9067 8.42305C29.9209 8.39433 29.9318 8.38462 29.9244 8.39245C29.9161 8.4013 29.8921 8.42426 29.8428 8.45848L31.267 10.5131ZM32.0165 9.12803C32.3096 8.80758 32.5896 8.41643 32.7277 7.95015C32.8796 7.43702 32.8359 6.9086 32.5906 6.42749L30.3634 7.56314C30.3449 7.52681 30.3242 7.46911 30.3178 7.39677C30.3115 7.32495 30.3219 7.26963 30.3306 7.24039C30.3382 7.21478 30.341 7.21999 30.3168 7.25833C30.2925 7.29683 30.248 7.35744 30.1717 7.44091L32.0165 9.12803ZM32.4524 7.777C32.8428 7.28979 33.1126 6.71538 33.0481 6.058C32.9915 5.48067 32.6728 5.0441 32.593 4.92227L30.5015 6.29172C30.5174 6.316 30.5295 6.33445 30.5417 6.35334C30.5535 6.37146 30.5627 6.38608 30.5706 6.39876C30.5866 6.42471 30.5926 6.43613 30.5938 6.43849C30.595 6.44103 30.5687 6.38936 30.5601 6.30206C30.5559 6.2591 30.5569 6.21702 30.5623 6.17856C30.5676 6.14073 30.5759 6.11462 30.5806 6.10213C30.585 6.09037 30.585 6.09378 30.5734 6.11322C30.5617 6.13287 30.5396 6.16616 30.5015 6.21363L32.4524 7.777ZM32.6432 6.2081C32.9975 5.56215 33.136 4.65953 32.6261 3.88492C32.0941 3.07692 31.1592 2.85564 30.3069 2.956L30.5993 5.43885C30.7398 5.4223 30.7746 5.44456 30.7408 5.43239C30.6975 5.41683 30.6088 5.3672 30.538 5.25969C30.4701 5.15658 30.4585 5.06081 30.4601 5.01216C30.4616 4.96741 30.4726 4.96693 30.4513 5.00589L32.6432 6.2081ZM31.4872 3.49517C30.9771 2.74408 30.2047 2.51751 29.7131 2.44824C29.2603 2.38444 28.7191 2.43258 28.8282 2.43056L28.8744 4.93014C28.9192 4.92931 28.9607 4.92639 28.9765 4.92529C28.9934 4.92411 29.0238 4.92181 29.0361 4.92092C29.0721 4.91831 29.107 4.91607 29.1444 4.9148C29.2216 4.91219 29.2971 4.91431 29.3643 4.92379C29.5212 4.9459 29.4731 4.97928 29.419 4.89969L31.4872 3.49517ZM29.8278 2.89998C29.6727 2.70589 29.4026 2.4143 28.9408 2.24074C28.5147 2.08059 28.0586 2.0708 27.6008 2.1285L27.9134 4.60888C28.028 4.59444 28.0898 4.59559 28.1131 4.59717C28.134 4.59859 28.1105 4.59943 28.0613 4.58092C28.037 4.57179 28.0103 4.5594 27.983 4.54342C27.9556 4.52746 27.9319 4.51044 27.9122 4.49425C27.8744 4.46318 27.8591 4.4411 27.8748 4.46071L29.8278 2.89998ZM28.5885 2.43525C27.5988 1.55375 26.4848 1.81735 25.8322 2.06601L26.7223 4.40219C26.8141 4.3672 26.8824 4.34684 26.933 4.33572C26.9829 4.32475 27.0034 4.32552 27.002 4.32548C26.9974 4.32532 26.9768 4.32346 26.9504 4.31306C26.9237 4.30255 26.9153 4.29283 26.9257 4.30212L28.5885 2.43525ZM27.0975 2.29092C26.7306 1.97175 26.269 1.78353 25.7856 1.75286L25.6273 4.24785C25.5663 4.24398 25.5062 4.22017 25.4569 4.17728L27.0975 2.29092ZM25.7437 1.75091C25.3176 1.73821 24.971 1.86241 24.7681 1.94416C24.4769 2.06148 24.5101 2.06233 24.4084 2.0944L25.1604 4.47864C25.2977 4.43532 25.4188 4.38487 25.5039 4.34829C25.6087 4.3033 25.6436 4.28671 25.7024 4.26302C25.801 4.2233 25.7627 4.25259 25.6692 4.2498L25.7437 1.75091ZM25.1666 2.09637C24.5813 1.90844 24.0555 1.89884 23.5573 2.08632C23.3546 2.16259 23.1882 2.2621 23.1229 2.29978C23.0353 2.35038 23.0439 2.34212 23.0679 2.33336L23.9254 4.68168C24.1337 4.60562 24.3017 4.50599 24.3728 4.4649C24.4664 4.41091 24.4583 4.41842 24.4377 4.42615C24.3956 4.442 24.3461 4.4508 24.3079 4.45048C24.2805 4.45024 24.3044 4.44525 24.4022 4.47667L25.1666 2.09637ZM23.7516 2.28379C23.1137 2.1509 22.5244 2.20503 21.9924 2.50718C21.585 2.73854 21.2404 3.13529 21.1562 3.21967L22.926 4.98535C22.984 4.9273 23.0407 4.8681 23.0812 4.82622C23.126 4.77989 23.1572 4.74812 23.1848 4.72163C23.2401 4.66859 23.2481 4.66909 23.227 4.68104C23.1953 4.69903 23.1562 4.71144 23.1278 4.71482C23.1083 4.71714 23.1378 4.70959 23.2417 4.73124L23.7516 2.28379ZM22.0681 2.8528L21.6092 2.84289L21.5552 5.3423L22.0141 5.35222L22.0681 2.8528ZM20.953 3.01253C20.1131 3.50183 19.5308 4.21305 19.1667 4.70471C19.0732 4.83089 18.9896 4.94919 18.9202 5.04746C18.8467 5.15161 18.7965 5.22295 18.7539 5.27987C18.7054 5.34484 18.7052 5.33852 18.7368 5.30769C18.7536 5.2914 18.8121 5.23546 18.9085 5.17782C18.9993 5.12354 19.2074 5.01716 19.5 5.01716V7.51716C19.8231 7.51716 20.0646 7.39938 20.1917 7.3234C20.3243 7.24405 20.4221 7.1561 20.4812 7.09855C20.5976 6.9852 20.6945 6.85939 20.7565 6.7765C20.8244 6.68556 20.8981 6.58065 20.9629 6.48877C21.0319 6.39102 21.101 6.2935 21.1757 6.19265C21.4841 5.77625 21.8209 5.40019 22.2115 5.17266L20.953 3.01253ZM19.5 5.01716C19.7926 5.01716 20.0008 5.12354 20.0916 5.17782C20.1879 5.23545 20.2465 5.29138 20.2632 5.30766C20.2948 5.33847 20.2946 5.34477 20.246 5.27977C20.2035 5.22282 20.1532 5.15148 20.0797 5.04729C20.0103 4.94899 19.9266 4.83066 19.833 4.70446C19.4686 4.21262 18.8858 3.50142 18.0451 3.01221L16.7877 5.17298C17.1788 5.40059 17.516 5.77668 17.8244 6.19291C17.8991 6.29372 17.9682 6.39122 18.0372 6.48895C18.102 6.58079 18.1757 6.68569 18.2437 6.7766C18.3056 6.85946 18.4025 6.98525 18.5189 7.09858C18.578 7.15611 18.6758 7.24406 18.8084 7.3234C18.9355 7.39938 19.177 7.51716 19.5 7.51716V5.01716ZM17.3932 2.84281L16.9357 2.85131L16.9822 5.35088L17.4396 5.34238L17.3932 2.84281ZM17.8439 3.21828C17.7593 3.13348 17.4154 2.73771 17.0071 2.50639C16.4755 2.20515 15.8864 2.15089 15.2485 2.28379L15.7584 4.73124C15.8622 4.70961 15.8919 4.7171 15.8728 4.71484C15.8448 4.71152 15.8061 4.6993 15.7747 4.68147C15.7537 4.66961 15.7617 4.66911 15.8165 4.7217C15.8439 4.74798 15.875 4.77955 15.9196 4.82559C15.9598 4.86712 16.0165 4.92622 16.074 4.98391L17.8439 3.21828ZM15.9322 2.33336C15.9569 2.34236 15.9658 2.3509 15.8784 2.30031C15.8136 2.26277 15.647 2.16285 15.4444 2.08631C14.945 1.89775 14.418 1.90767 13.8322 2.09725L14.602 4.47579C14.699 4.44439 14.722 4.44962 14.6934 4.44988C14.6541 4.45023 14.6037 4.44116 14.5612 4.4251C14.5404 4.41727 14.5321 4.40961 14.626 4.46397C14.6974 4.5053 14.8657 4.60538 15.0746 4.68168L15.9322 2.33336ZM14.5915 2.0939C14.5759 2.089 14.5467 2.07832 14.4825 2.05082C14.4385 2.03196 14.3233 1.98083 14.2324 1.94417C14.0306 1.86287 13.6838 1.73816 13.2576 1.75092L13.3324 4.2498C13.2375 4.25264 13.1983 4.22284 13.2981 4.26302C13.3578 4.2871 13.3919 4.30335 13.4978 4.34872C13.5835 4.38546 13.7049 4.43587 13.8427 4.47914L14.5915 2.0939ZM12.9097 5.0374C13.3015 5.18033 13.4762 5.33706 13.8166 5.62798L15.4407 3.72736C15.1014 3.43746 14.6251 3.00203 13.7664 2.68879L12.9097 5.0374ZM15.6288 5.42756C15.622 5.43651 15.6187 5.44011 15.6351 5.4204C15.6454 5.40798 15.6778 5.3694 15.7099 5.32767C15.7767 5.24073 15.8969 5.07244 15.9758 4.83495C16.1622 4.27433 15.9913 3.76991 15.7847 3.4134L13.6217 4.66695C13.6282 4.67811 13.5908 4.61853 13.5693 4.50208C13.5445 4.36811 13.5499 4.20763 13.6034 4.04653C13.6512 3.90289 13.7195 3.81481 13.728 3.80375C13.731 3.79996 13.7326 3.79823 13.7122 3.82275C13.6979 3.83998 13.664 3.88058 13.6286 3.92779L15.6288 5.42756ZM14.0813 5.12446C14.3941 5.30388 14.5943 5.49163 14.7291 5.6725L16.7337 4.17867C16.3723 3.69371 15.9015 3.28647 15.3252 2.9559L14.0813 5.12446ZM16.3985 5.98272C16.6121 5.84792 16.8156 5.65796 16.9615 5.39862C17.1064 5.14108 17.1518 4.89079 17.1626 4.70109C17.1724 4.52964 17.1539 4.37779 17.1484 4.32825C17.1391 4.24442 17.1437 4.27337 17.1434 4.30906L14.6435 4.29263C14.6425 4.4374 14.6607 4.57737 14.6637 4.60414C14.6705 4.66519 14.663 4.62347 14.6666 4.55934C14.6713 4.47695 14.6936 4.33113 14.7827 4.17285C14.8727 4.01276 14.9877 3.91684 15.0644 3.86845L16.3985 5.98272ZM15.1103 5.27512C15.4789 5.57135 15.6324 5.80652 16.094 6.30262L17.9243 4.59971C17.6689 4.32515 17.2316 3.77266 16.6766 3.32657L15.1103 5.27512ZM17.7468 6.46027C18.1096 6.19508 18.246 5.81402 18.2833 5.71247C18.3463 5.54059 18.3905 5.35632 18.4238 5.19082L15.973 4.69719C15.9505 4.80935 15.9358 4.85245 15.9361 4.85163C15.9365 4.85061 15.9506 4.81107 15.9851 4.7527C16.0032 4.72202 16.0323 4.67715 16.0748 4.62602C16.117 4.57538 16.1811 4.5081 16.2714 4.44205L17.7468 6.46027ZM16.3342 5.84708C16.7686 6.26287 17.2785 6.99913 17.4486 7.64521C17.5296 7.95289 17.5068 8.13708 17.4712 8.23272C17.448 8.2949 17.3822 8.43218 17.0688 8.57883L18.1283 10.8432C18.9427 10.4622 19.5285 9.87148 19.8138 9.10559C20.0868 8.37315 20.0295 7.62917 19.8662 7.00876C19.5476 5.79868 18.7296 4.67912 18.0627 4.04092L16.3342 5.84708ZM18.3879 8.74185C16.3205 7.05788 13.8824 5.85781 11.2453 4.97175L10.449 7.34156C12.8883 8.16115 15.0363 9.23623 16.8091 10.6802L18.3879 8.74185ZM10.2798 7.2705C13.5084 8.91496 15.243 10.1764 16.1263 11.1501L17.978 9.47042C16.782 8.15205 14.7164 6.72465 11.4145 5.04282L10.2798 7.2705ZM15.8401 10.0048C15.7223 10.4719 15.3657 10.7945 14.6922 11.0076C14.0088 11.2239 13.2309 11.2383 12.7959 11.2129L12.6498 13.7086C13.2315 13.7427 14.3523 13.7373 15.4464 13.3912C16.5503 13.0418 17.85 12.2595 18.2643 10.6158L15.8401 10.0048ZM13.2483 13.595C13.4819 13.4868 14.0965 13.1878 14.3449 12.4907L11.9899 11.6516C12.0548 11.4696 12.1617 11.3666 12.2078 11.3288C12.2467 11.297 12.2579 11.2985 12.1974 11.3266L13.2483 13.595ZM13.8848 11.0476C13.6861 10.9082 13.4885 10.8433 13.3648 10.8103C13.2337 10.7753 13.1098 10.757 13.0161 10.7458C12.8513 10.7261 12.6219 10.7132 12.5071 10.7044C12.1727 10.6788 12.0359 10.6401 11.9811 10.6097L10.7686 12.796C11.3448 13.1155 11.976 13.171 12.3159 13.1971C12.5382 13.2142 12.6227 13.2165 12.7195 13.2281C12.7565 13.2325 12.7503 13.2338 12.7203 13.2258C12.6977 13.2198 12.5846 13.1891 12.45 13.0948L13.8848 11.0476ZM11.6308 12.9264C11.7619 12.8989 12.0123 12.8452 12.2622 12.7075C12.5579 12.5446 12.7567 12.3229 12.8982 12.1016L10.7923 10.7544C10.8011 10.7405 10.8288 10.6998 10.8784 10.6505C10.9314 10.598 10.9924 10.5528 11.0558 10.5179C11.1146 10.4855 11.1585 10.4714 11.1686 10.4683C11.1757 10.4661 11.1659 10.4695 11.1189 10.4793L11.6308 12.9264ZM12.2191 10.2352C11.8742 10.1271 11.6303 10.0594 11.3844 9.96945C11.1409 9.8803 11.0457 9.81936 11.0221 9.79997L9.43319 11.7301C9.78822 12.0224 10.2035 12.1994 10.525 12.3171C10.8442 12.4339 11.2197 12.5419 11.4713 12.6208L12.2191 10.2352ZM10.2104 12.0149C10.2532 12.0155 10.9261 12.118 11.5927 11.6624L10.1819 9.59847C10.1936 9.59047 10.2239 9.57196 10.2712 9.55463C10.3197 9.53687 10.3659 9.52774 10.4022 9.52386C10.4332 9.52055 10.4482 9.52227 10.4214 9.52138C10.4051 9.52084 10.3926 9.52019 10.3591 9.51871C10.3311 9.51747 10.2902 9.51577 10.2449 9.51514L10.2104 12.0149ZM11.4759 9.52771C10.7722 9.15205 10.49 9.06171 10.2199 8.79487L8.46295 10.5734C9.0762 11.1792 9.93554 11.5393 10.2987 11.7332L11.4759 9.52771ZM9.36702 10.9339C9.46765 10.9318 9.68616 10.9309 9.8735 10.9112C9.97158 10.9008 10.1187 10.8804 10.2769 10.8305C10.4154 10.7868 10.7088 10.6764 10.951 10.3933L9.05121 8.76815C9.1561 8.64553 9.26579 8.57003 9.34372 8.52592C9.42157 8.48187 9.48677 8.45834 9.5244 8.44646C9.59402 8.42449 9.63354 8.4226 9.61205 8.42486C9.59716 8.42642 9.56668 8.42858 9.51058 8.43031C9.45081 8.43216 9.39889 8.43268 9.31584 8.43438L9.36702 10.9339ZM10.6457 8.50973C10.2836 8.29177 9.95332 8.02677 9.66377 7.72217L7.85179 9.44459C8.29647 9.91239 8.80266 10.3183 9.35647 10.6517L10.6457 8.50973ZM8.60795 9.82437C9.04341 9.87695 9.61205 9.89851 10.1091 9.55627L8.69135 7.49716C8.76067 7.44943 8.83287 7.41375 8.90223 7.38953C8.96817 7.3665 9.01823 7.35846 9.04199 7.35566C9.06474 7.35297 9.06764 7.35458 9.04288 7.35389C9.01853 7.35322 8.97523 7.35056 8.90762 7.34239L8.60795 9.82437ZM10.2905 7.6493C10.17 7.527 10.0476 7.41567 9.94713 7.32505C9.83858 7.22716 9.7585 7.15594 9.68118 7.08171C9.526 6.93273 9.47983 6.86106 9.46479 6.83011L7.21617 7.92268C7.42484 8.35214 7.72356 8.66793 7.94982 8.88515C8.06323 8.99402 8.18302 9.10059 8.2729 9.18164C8.37084 9.26997 8.44546 9.33872 8.50992 9.40413L10.2905 7.6493ZM7.93723 8.55956C8.23777 8.66199 9.08693 8.92599 9.83275 8.36224L8.32526 6.36788C8.51152 6.22709 8.69753 6.20961 8.77461 6.21136C8.83283 6.21268 8.83368 6.22388 8.74373 6.19322L7.93723 8.55956ZM10.219 6.85221C10.0762 6.53494 9.85564 6.32903 9.7479 6.23317C9.68651 6.17854 9.62508 6.12876 9.58125 6.09342C9.53101 6.05291 9.49786 6.02655 9.46114 5.99591C9.33636 5.89178 9.2781 5.82478 9.23373 5.73102L6.97402 6.80046C7.23939 7.36119 7.6056 7.70361 7.8594 7.91539C7.91733 7.96373 7.97596 8.0105 8.01211 8.03965C8.05468 8.07397 8.07428 8.09038 8.08602 8.10082C8.12455 8.13511 8.0187 8.05493 7.93906 7.87792L10.219 6.85221ZM7.98733 7.51029C8.11195 7.52196 8.31979 7.54369 8.49233 7.54997C8.57788 7.55309 8.70951 7.55513 8.84969 7.53829C8.92016 7.52982 9.02973 7.51248 9.15382 7.47093C9.26527 7.43361 9.48743 7.3447 9.69023 7.13525L7.89418 5.39623C7.992 5.29519 8.09071 5.22864 8.16703 5.18594C8.24359 5.1431 8.3113 5.11661 8.36002 5.1003C8.45321 5.06909 8.52485 5.05934 8.55148 5.05614C8.60395 5.04984 8.62418 5.05312 8.58335 5.05163C8.55138 5.05046 8.50502 5.04734 8.43854 5.04156C8.36991 5.03559 8.30549 5.02915 8.22041 5.02118L7.98733 7.51029ZM10.0058 5.96633C9.80334 5.14563 9.42947 4.65619 9.19146 4.32559L7.16255 5.78625C7.29327 5.96782 7.36548 6.06715 7.43038 6.18311C7.4865 6.28339 7.53774 6.39958 7.57859 6.56514L10.0058 5.96633ZM8.19617 6.30577C8.35117 6.30339 8.52763 6.30227 8.7113 6.30109C8.89199 6.29992 9.07992 6.2987 9.24712 6.29602C9.40813 6.29343 9.57601 6.28919 9.70813 6.27999C9.76167 6.27626 9.86957 6.26812 9.98032 6.24549C10.0016 6.24115 10.1904 6.2072 10.3892 6.09024C10.473 6.04097 10.7829 5.85086 10.934 5.43738C11.1313 4.89748 10.9129 4.43807 10.7226 4.20757L8.79489 5.79943C8.60733 5.5723 8.38972 5.11612 8.58587 4.57934C8.73582 4.16898 9.04272 3.98186 9.12157 3.93547C9.23541 3.8685 9.33311 3.83621 9.37253 3.82389C9.42094 3.80876 9.45937 3.80028 9.47979 3.79611C9.54296 3.7832 9.57658 3.78309 9.53445 3.78603C9.47522 3.79015 9.36615 3.79379 9.20702 3.79634C9.05407 3.79879 8.87865 3.79996 8.69519 3.80114C8.51472 3.8023 8.32622 3.80348 8.15784 3.80606L8.19617 6.30577ZM10.6466 4.12365L10.2465 3.7199L8.47075 5.47961L8.87084 5.88336L10.6466 4.12365ZM9.67876 5.80807C9.7757 5.78239 9.91102 5.7752 10.1035 5.80479C10.3012 5.83517 10.4996 5.89351 10.7386 5.96716L11.4748 3.57802C11.052 3.44773 10.0658 3.11927 9.03852 3.39144L9.67876 5.80807ZM11.8711 5.76164C12.1147 5.57334 12.3784 5.25094 12.4324 4.78662C12.482 4.36005 12.3272 4.02892 12.2214 3.85343C12.0337 3.54191 11.7414 3.30742 11.6414 3.22464L10.0472 5.15038C10.1043 5.19766 10.1333 5.22374 10.1479 5.23807C10.1685 5.2582 10.1287 5.22436 10.0802 5.14386C10.0343 5.06771 9.91018 4.83282 9.94909 4.49802C9.99239 4.12547 10.2041 3.89038 10.3423 3.78353L11.8711 5.76164ZM10.6806 5.42675C11.1296 5.48605 11.5192 5.58572 11.8573 5.71561L12.7538 3.3819C12.2143 3.17463 11.6316 3.03064 11.008 2.94827L10.6806 5.42675ZM13.1402 5.47927C13.426 5.22294 13.686 4.78945 13.6175 4.23796C13.5637 3.80461 13.3244 3.51666 13.2333 3.41249C13.1256 3.28935 13.0028 3.18294 12.9587 3.14382C12.8847 3.07811 12.8875 3.07824 12.9012 3.09372L11.0273 4.74864C11.1342 4.86966 11.2555 4.9748 11.2995 5.01379C11.3734 5.07936 11.3681 5.07735 11.3516 5.05851C11.3389 5.04398 11.3005 4.9987 11.2595 4.92563C11.2181 4.852 11.1585 4.7223 11.1366 4.54589C11.1131 4.35669 11.1388 4.15664 11.2196 3.9712C11.2958 3.79609 11.4 3.68183 11.4709 3.61824L13.1402 5.47927ZM11.7333 5.14966C12.0739 5.21369 12.2799 5.28306 12.4181 5.34226C12.5577 5.40201 12.6629 5.46523 12.8325 5.57141L14.1591 3.45243C13.7282 3.18266 13.2263 2.88655 12.1952 2.6927L11.7333 5.14966ZM14.3535 5.42124C14.5517 5.2343 14.7585 4.95347 14.8308 4.57033C14.9033 4.18561 14.8094 3.86144 14.7101 3.64788C14.618 3.4498 14.4997 3.30028 14.4388 3.22575C14.405 3.18438 14.3715 3.14569 14.3506 3.12153C14.3259 3.09289 14.314 3.07905 14.3043 3.06723L12.3718 4.6533C12.4051 4.69389 12.4384 4.73225 12.4587 4.75576C12.4829 4.78374 12.4943 4.79714 12.5032 4.80799C12.5276 4.8379 12.4856 4.79329 12.4432 4.702C12.3935 4.59521 12.3226 4.37969 12.3741 4.10683C12.4253 3.83557 12.5668 3.66984 12.6381 3.60261L14.3535 5.42124ZM24.6984 3.06402C24.6885 3.07602 24.6766 3.08982 24.6515 3.11867C24.6304 3.14303 24.5967 3.18174 24.5626 3.22334C24.5011 3.29833 24.3824 3.44809 24.29 3.64682C24.1903 3.86117 24.097 4.18497 24.1692 4.56883C24.241 4.95074 24.4464 5.23135 24.6439 5.41871L26.3647 3.60514C26.4352 3.67209 26.5754 3.83706 26.6261 4.10674C26.6772 4.37838 26.6069 4.59336 26.5569 4.70093C26.5141 4.79287 26.4717 4.8379 26.4956 4.80881C26.5041 4.79837 26.5154 4.7852 26.5393 4.75768C26.5593 4.73465 26.5925 4.69656 26.6256 4.65651L24.6984 3.06402ZM26.1687 5.57071C26.3396 5.46349 26.4445 5.40026 26.5835 5.34057C26.7211 5.28151 26.9264 5.21224 27.2668 5.14824L26.8049 2.69129C25.7728 2.88532 25.2719 3.18202 24.8398 3.45314L26.1687 5.57071ZM26.1017 3.08917C26.115 3.07415 26.1177 3.07407 26.0431 3.14002C25.9985 3.17941 25.8756 3.28563 25.7675 3.40904C25.676 3.5134 25.4364 3.80142 25.3825 4.23508C25.3141 4.78668 25.5742 5.22018 25.8599 5.47644L27.5292 3.61541C27.6001 3.679 27.7042 3.79324 27.7805 3.96833C27.8612 4.15374 27.887 4.35383 27.8635 4.54315C27.8226 4.87252 27.6479 5.05641 27.6477 5.05665C27.6308 5.07593 27.6254 5.07802 27.6988 5.01312C27.7422 4.97476 27.8634 4.87021 27.97 4.75035L26.1017 3.08917ZM27.1347 5.71585C27.514 5.57313 27.9094 5.47546 28.3125 5.42499L28.0019 2.94436C27.4043 3.01918 26.8177 3.16404 26.2543 3.37599L27.1347 5.71585ZM27.3628 3.21963C27.26 3.30422 26.9676 3.53821 26.7794 3.85059C26.6735 4.02634 26.5195 4.35638 26.568 4.78139C26.6209 5.24407 26.8822 5.56682 27.1257 5.75628L28.661 3.78323C28.7998 3.89123 29.0095 4.12668 29.0519 4.49758C29.09 4.83083 28.9666 5.06462 28.9206 5.14103C28.872 5.22167 28.8321 5.25563 28.8522 5.23598C28.8663 5.22211 28.8951 5.19629 28.9517 5.14973L27.3628 3.21963ZM28.2604 5.96464C28.5012 5.89068 28.6994 5.83236 28.8973 5.80195C29.0895 5.77241 29.2252 5.77945 29.3234 5.80542L29.9623 3.38843C28.9341 3.11665 27.9495 3.44485 27.5263 3.57487L28.2604 5.96464ZM28.7565 3.71548L28.355 4.11923L30.1277 5.88211L30.5292 5.47836L28.7565 3.71548ZM28.2649 4.2203C28.0692 4.46508 27.8691 4.9309 28.076 5.46039C28.2323 5.86055 28.5354 6.04353 28.6176 6.09121C28.8136 6.20495 28.9989 6.23834 29.0212 6.24286C29.1314 6.2653 29.2389 6.27342 29.2926 6.27716C29.4247 6.28635 29.5925 6.2906 29.7535 6.29318C29.9206 6.29587 30.1084 6.29709 30.289 6.29826C30.4725 6.29944 30.6489 6.30056 30.8039 6.30294L30.8422 3.80323C30.6739 3.80065 30.4855 3.79947 30.3051 3.79831C30.1217 3.79713 29.9465 3.79596 29.7936 3.79351C29.6346 3.79095 29.5255 3.78732 29.4662 3.78319C29.4242 3.78027 29.4572 3.78036 29.5197 3.79308C29.5399 3.79719 29.5778 3.80551 29.6256 3.82033C29.6646 3.83246 29.7604 3.86392 29.8722 3.92883C29.9494 3.97363 30.2494 4.15362 30.4046 4.55067C30.6102 5.07703 30.4108 5.53963 30.2178 5.78103L28.2649 4.2203ZM29.8086 4.32275C29.5686 4.65611 29.1997 5.14199 28.9943 5.95769L31.4186 6.56812C31.461 6.3999 31.5133 6.28175 31.5701 6.18028C31.6352 6.06385 31.7079 5.96347 31.8375 5.78342L29.8086 4.32275ZM29.3182 7.14245C29.5195 7.34567 29.7377 7.43237 29.8484 7.46912C29.9713 7.50994 30.0799 7.5271 30.1504 7.53553C30.2902 7.55227 30.4216 7.55026 30.5074 7.54714C30.6802 7.54084 30.8876 7.5191 31.0119 7.50741L30.7777 5.0184C30.6932 5.02635 30.6288 5.0328 30.5606 5.03875C30.4945 5.04452 30.4483 5.04763 30.4164 5.0488C30.3758 5.05027 30.3955 5.04703 30.4474 5.05323C30.4737 5.05639 30.5442 5.06597 30.636 5.09643C30.684 5.11236 30.7505 5.13814 30.8257 5.1797C30.9007 5.22112 30.9978 5.28556 31.0946 5.38336L29.3182 7.14245ZM29.764 5.73021C29.7202 5.82312 29.6626 5.88959 29.5383 5.99345C29.5017 6.024 29.4686 6.05036 29.4185 6.09081C29.3747 6.1261 29.3133 6.17586 29.252 6.23046C29.1444 6.32625 28.9238 6.53215 28.7811 6.84937L31.061 7.87508C30.9814 8.05206 30.8756 8.13223 30.9142 8.09786C30.926 8.08738 30.9456 8.07096 30.9882 8.03659C31.0244 8.00738 31.083 7.96061 31.1409 7.91218C31.3948 7.70012 31.761 7.35718 32.0256 6.7956L29.764 5.73021ZM29.1673 8.3594C29.9131 8.92316 30.7623 8.65916 31.0628 8.55673L30.2563 6.19039C30.1664 6.22105 30.1672 6.20984 30.2255 6.20853C30.3025 6.20678 30.4886 6.22426 30.6748 6.36505L29.1673 8.3594ZM29.5339 6.83011C29.5197 6.85961 29.4746 6.93045 29.3202 7.07869C29.2434 7.1524 29.1634 7.2235 29.0553 7.32078C28.9552 7.41088 28.8329 7.52177 28.7126 7.64337L30.4899 9.40156C30.5546 9.33616 30.6294 9.26749 30.7277 9.17905C30.8179 9.09779 30.9377 8.99136 31.0515 8.88215C31.2782 8.66454 31.5772 8.34792 31.7853 7.91701L29.5339 6.83011ZM28.8747 9.53962C29.3794 9.90016 29.9666 9.8731 30.3927 9.82147L30.0919 7.33963C30.0249 7.34775 29.9821 7.35037 29.9582 7.35103C29.9338 7.3517 29.9374 7.35007 29.961 7.3529C29.9854 7.35584 30.0374 7.36426 30.1057 7.38858C30.1775 7.41416 30.2539 7.45247 30.3279 7.50531L28.8747 9.53962ZM29.3359 7.71976C29.0467 8.02429 28.7169 8.28927 28.3551 8.50732L29.6457 10.6484C30.1989 10.315 30.7045 9.90901 31.1487 9.44133L29.3359 7.71976ZM28.0563 10.3971C28.2987 10.6764 28.5904 10.7849 28.7263 10.8276C28.8827 10.8768 29.0284 10.8972 29.1262 10.9076C29.3141 10.9276 29.5303 10.9289 29.6345 10.931L29.6857 8.43155C29.605 8.4299 29.5511 8.42923 29.493 8.42734C29.4373 8.42553 29.4065 8.42332 29.3913 8.42169C29.3695 8.41936 29.4076 8.42119 29.4755 8.44252C29.5122 8.45404 29.5762 8.47699 29.653 8.52001C29.7297 8.56297 29.8392 8.63721 29.9446 8.75868L28.0563 10.3971ZM28.7859 8.78777C28.5112 9.05653 28.2226 9.15307 27.5254 9.52422L28.7002 11.731C29.0727 11.5327 29.9198 11.1759 30.5342 10.5748L28.7859 8.78777ZM27.41 11.6613C28.0767 12.1146 28.7461 12.0127 28.7898 12.0121L28.755 9.51231C28.7098 9.51294 28.669 9.51465 28.6411 9.51589C28.634 9.51621 28.6269 9.51653 28.6208 9.51681C28.6145 9.5171 28.609 9.51734 28.6038 9.51757C28.5932 9.51804 28.5856 9.51834 28.5794 9.51855C28.5529 9.51943 28.568 9.51772 28.599 9.52103C28.6351 9.52489 28.6808 9.53394 28.7285 9.55137C28.775 9.56836 28.8045 9.5864 28.8155 9.59387L27.41 11.6613ZM27.9779 9.79714C27.954 9.81683 27.8588 9.87777 27.6159 9.96679C27.3708 10.0566 27.1267 10.1245 26.7824 10.2324L27.5302 12.618C27.7824 12.5389 28.1571 12.4311 28.4763 12.3141C28.7977 12.1963 29.2122 12.0192 29.5669 11.7272L27.9779 9.79714ZM26.1033 12.0988C26.2446 12.3197 26.4435 12.542 26.74 12.705C26.9915 12.8433 27.2428 12.8962 27.3747 12.9232L27.8758 10.474C27.8298 10.4646 27.8209 10.4614 27.8291 10.4639C27.8403 10.4673 27.8851 10.4816 27.9447 10.5144C28.0087 10.5496 28.07 10.5951 28.123 10.6477C28.1728 10.6969 28.2004 10.7377 28.2092 10.7516L26.1033 12.0988ZM27.0171 10.6065C26.9627 10.6368 26.8263 10.6757 26.4931 10.7012C26.3795 10.71 26.1494 10.7228 25.986 10.7421C25.8928 10.7532 25.7691 10.7713 25.6384 10.8059C25.5153 10.8386 25.3172 10.9031 25.1178 11.0425L26.5504 13.0913C26.4148 13.1861 26.3009 13.2167 26.2786 13.2226C26.2486 13.2305 26.2425 13.2292 26.2798 13.2248C26.3776 13.2132 26.461 13.211 26.6844 13.1939C27.0252 13.1678 27.6567 13.1118 28.2333 12.7907L27.0171 10.6065ZM24.6536 12.478C24.8984 13.1809 25.5163 13.4831 25.7562 13.5935L26.8011 11.3224C26.7428 11.2955 26.7552 11.2945 26.7952 11.3275C26.8422 11.3661 26.9502 11.471 27.0146 11.6559L24.6536 12.478ZM26.2075 11.21C25.7704 11.2349 24.9923 11.22 24.3086 11.0037C23.6348 10.7905 23.2778 10.4678 23.1598 10.001L20.7361 10.6139C21.1515 12.2564 22.4508 13.0381 23.5544 13.3873C24.6483 13.7334 25.7687 13.739 26.3498 13.7059L26.2075 11.21ZM22.8737 11.1474C23.7584 10.1722 25.4915 8.91221 28.7215 7.26776L27.5872 5.03988C24.2838 6.72173 22.2196 8.14772 21.0222 9.46752L22.8737 11.1474ZM27.7566 4.96878C25.1162 5.85493 22.6794 7.05514 20.6132 8.7393L22.1928 10.6771C23.964 9.2333 26.1103 8.15836 28.5521 7.33886L27.7566 4.96878ZM21.9319 8.5756C21.618 8.42905 21.5523 8.29184 21.5293 8.23002C21.4937 8.13474 21.4708 7.95086 21.5518 7.64322C21.7217 6.99722 22.2315 6.2605 22.6665 5.84367L20.9368 4.03867C20.2704 4.67725 19.4524 5.79704 19.134 7.00721C18.9708 7.62766 18.9137 8.37177 19.1871 9.10422C19.4729 9.87012 20.0594 10.4604 20.8741 10.8408L21.9319 8.5756ZM20.5775 5.19406C20.6109 5.35592 20.655 5.53904 20.7178 5.70989C20.7566 5.81539 20.8926 6.19095 21.2514 6.45502L22.7334 4.44164C22.8207 4.5059 22.8833 4.57132 22.9253 4.62169C22.9676 4.67236 22.9966 4.71695 23.015 4.74785C23.0498 4.80654 23.064 4.84645 23.0644 4.84748C23.0644 4.84763 23.0497 4.80409 23.0258 4.68828L20.5775 5.19406ZM22.9075 6.29979C23.3715 5.80106 23.521 5.56865 23.8897 5.27228L22.3235 3.32374C21.7687 3.76969 21.3302 4.32495 21.0772 4.59687L22.9075 6.29979ZM21.8566 4.29801C21.8566 4.26597 21.8608 4.23826 21.8511 4.3249C21.8453 4.37697 21.8269 4.52963 21.8373 4.70282C21.8488 4.8939 21.8956 5.14485 22.0422 5.40222C22.1898 5.66127 22.3948 5.85029 22.6094 5.98391L23.9307 3.8616C24.0077 3.9095 24.1234 4.00485 24.2145 4.16478C24.3047 4.32303 24.3278 4.46942 24.3328 4.553C24.3368 4.61871 24.3292 4.66095 24.3357 4.60222C24.3384 4.57805 24.3566 4.43913 24.3566 4.29801H21.8566ZM24.2745 5.66688C24.4078 5.48691 24.6063 5.30031 24.9136 5.12602L23.6801 2.9515C23.0983 3.28154 22.6257 3.69277 22.2657 4.17862L24.2745 5.66688ZM23.2174 3.40839C23.0073 3.76827 22.8379 4.27437 23.0261 4.83534C23.1052 5.07107 23.2247 5.23831 23.2903 5.32384C23.3218 5.3649 23.3539 5.40341 23.3638 5.41537C23.3797 5.43467 23.3764 5.43101 23.3695 5.42172L25.3762 3.93079C25.3406 3.88289 25.3067 3.84187 25.2918 3.8239C25.2709 3.79859 25.2722 3.79993 25.2743 3.80276C25.2813 3.81184 25.3487 3.89841 25.3962 4.04011C25.4498 4.19991 25.4564 4.36096 25.4313 4.49763C25.4095 4.6166 25.3709 4.67832 25.3762 4.66913L23.2174 3.40839ZM25.1914 5.62095C25.5226 5.33401 25.6989 5.17738 26.0904 5.03457L25.2336 2.68596C24.3747 2.99931 23.9 3.432 23.5543 3.73156L25.1914 5.62095ZM19.5 13.8411C20.2032 13.8411 20.863 14.0808 21.3363 14.3888C21.5722 14.5423 21.7282 14.6912 21.8115 14.796C21.9181 14.9303 21.8273 14.8857 21.8265 14.6726L24.3265 14.6632C24.3242 14.0655 24.0293 13.5689 23.7696 13.2417C23.4864 12.885 23.1139 12.5628 22.6997 12.2933C21.8727 11.7552 20.7457 11.3411 19.5 11.3411V13.8411ZM21.8265 14.6753C21.8256 14.5149 21.912 14.6666 21.4598 14.9364C21.0586 15.1757 20.3938 15.3879 19.5109 15.3985L19.5408 17.8983C20.7831 17.8834 21.8965 17.5869 22.7407 17.0833C23.534 16.61 24.3332 15.7842 24.3265 14.6605L21.8265 14.6753ZM19.5258 15.3984H19.4742V17.8984H19.5258V15.3984ZM19.4892 15.3985C18.6059 15.3879 17.9411 15.176 17.54 14.9367C17.0885 14.6675 17.1745 14.5159 17.1736 14.6753L14.6736 14.6605C14.6669 15.7847 15.4657 16.6105 16.2596 17.084C17.1039 17.5874 18.2173 17.8834 19.4592 17.8983L19.4892 15.3985ZM17.1736 14.6749C17.1724 14.8872 17.0821 14.9311 17.189 14.7965C17.2726 14.6914 17.4288 14.5424 17.6649 14.3888C18.1383 14.0807 18.7978 13.8411 19.5 13.8411V11.3411C18.2548 11.3411 17.1282 11.7553 16.3014 12.2933C15.8873 12.5628 15.5149 12.8849 15.2317 13.2413C14.9719 13.5682 14.6769 14.064 14.6736 14.6609L17.1736 14.6749ZM14.0321 14.4743H14.1526V11.9743H14.0321V14.4743ZM14.1526 14.4743C14.3937 14.4743 14.65 14.496 14.9169 14.5407L15.3299 12.0751C14.9371 12.0093 14.5424 11.9743 14.1526 11.9743V14.4743ZM14.9196 14.5412C14.8119 14.5234 14.6271 14.4735 14.4396 14.328C14.2367 14.1704 14.1032 13.9565 14.0421 13.7349C13.9867 13.534 14.0017 13.3704 14.0159 13.2854C14.0306 13.1977 14.0533 13.1408 14.0604 13.1237C14.0707 13.0992 14.0213 13.2018 13.8064 13.4544C13.4181 13.9107 12.7694 14.5357 12.0532 15.1427C11.3351 15.7513 10.6181 16.2835 10.1078 16.5805C9.82383 16.7459 9.72698 16.7645 9.77072 16.7564C9.781 16.7545 10.0421 16.6994 10.3563 16.8633C10.7754 17.0819 10.9151 17.4769 10.9344 17.7149L8.44253 17.9165C8.47433 18.3096 8.67622 18.8066 9.20024 19.0799C9.61941 19.2985 10.0283 19.2509 10.2223 19.2153C10.6336 19.1398 11.0483 18.9258 11.3656 18.7411C12.0579 18.338 12.9023 17.7002 13.6696 17.0498C14.4389 16.3978 15.1998 15.6746 15.7104 15.0745C15.9449 14.7989 16.2173 14.4463 16.3673 14.0871C16.4302 13.9365 16.5812 13.5382 16.4521 13.0701C16.377 12.798 16.2166 12.5425 15.9726 12.3531C15.7442 12.1759 15.5045 12.1039 15.3272 12.0746L14.9196 14.5412ZM10.9379 17.7766C10.9029 16.6609 11.2583 15.869 11.7721 15.352C12.2946 14.8262 13.0763 14.4896 14.0533 14.4742L14.0138 11.9745C12.4784 11.9987 11.043 12.539 9.9989 13.5897C8.94608 14.649 8.38513 16.133 8.43908 17.8548L10.9379 17.7766ZM24.8489 14.4743H24.9694V11.9743H24.8489V14.4743ZM24.9496 14.4742C25.9257 14.4896 26.7072 14.8261 27.2298 15.3519C27.7439 15.869 28.0995 16.6608 28.0651 17.7757L30.5639 17.8528C30.617 16.1316 30.0555 14.6483 29.0029 13.5894C27.9589 12.5392 26.524 11.9987 24.9891 11.9745L24.9496 14.4742ZM28.0685 17.7136C28.0877 17.4763 28.2269 17.0818 28.6452 16.8629C28.9592 16.6986 29.2205 16.7534 29.2311 16.7553C29.2752 16.7634 29.1786 16.745 28.8947 16.5799C28.3845 16.2832 27.6676 15.7513 26.9494 15.1429C26.2331 14.5361 25.5843 13.9112 25.1958 13.4548C24.9809 13.2023 24.9312 13.0994 24.9413 13.1235C24.9484 13.1405 24.971 13.1972 24.9857 13.2846C25 13.3692 25.0152 13.5325 24.9603 13.733C24.8997 13.9541 24.7669 14.1683 24.5641 14.3264C24.3768 14.4725 24.1917 14.5229 24.0837 14.5409L23.6725 12.0749C23.4949 12.1046 23.2551 12.177 23.0269 12.3549C22.7832 12.5449 22.6235 12.8007 22.5491 13.0725C22.421 13.54 22.5719 13.9375 22.6349 14.0881C22.785 14.4471 23.0574 14.7996 23.2921 15.0753C23.8029 15.6753 24.5639 16.3984 25.3333 17.0503C26.1008 17.7005 26.9453 18.3382 27.6377 18.7409C27.9551 18.9255 28.3701 19.1394 28.7817 19.2146C28.9761 19.2501 29.3852 19.2972 29.8042 19.078C30.3274 18.8042 30.5287 18.3076 30.5604 17.915L28.0685 17.7136ZM24.0898 14.5399C24.3428 14.4964 24.6002 14.4766 24.8602 14.4743L24.8377 11.9744C24.4667 11.9777 24.0731 12.0061 23.6664 12.076L24.0898 14.5399ZM15.0713 18.0145C15.315 18.0126 15.5537 18.0479 15.7823 18.1238L16.5697 15.751C16.064 15.5832 15.5513 15.5108 15.0522 15.5146L15.0713 18.0145ZM15.7822 18.1237C16.9735 18.5192 17.7473 19.9894 17.2023 21.5741L19.5664 22.3872C20.4898 19.7021 19.2876 16.6532 16.5698 15.751L15.7822 18.1237ZM17.2024 21.5739C16.6542 23.167 15.1119 23.8895 13.9043 23.4899L13.1188 25.8632C15.8233 26.7584 18.6433 25.0697 19.5663 22.3874L17.2024 21.5739ZM13.9054 23.4902C12.7141 23.0947 11.9402 21.6245 12.4852 20.0398L10.1211 19.2267C9.19769 21.9118 10.3999 24.9607 13.1178 25.8629L13.9054 23.4902ZM12.4851 20.0402C12.9249 18.7628 14.0335 18.0218 15.0691 18.0145L15.0515 15.5146C12.8692 15.5299 10.8774 17.0301 10.1213 19.2263L12.4851 20.0402ZM23.9324 18.0145C24.9684 18.0218 26.078 18.7645 26.5163 20.0385L28.8803 19.2252C28.1255 17.0312 26.132 15.5299 23.95 15.5146L23.9324 18.0145ZM26.5164 20.0388C27.0627 21.6251 26.2885 23.0941 25.0972 23.4884L25.8827 25.8618C28.6034 24.9613 29.8053 21.9112 28.8802 19.2249L26.5164 20.0388ZM25.0956 23.489C23.8896 23.8899 22.3475 23.1678 21.799 21.5751L19.4353 22.3891C20.3581 25.069 23.1783 26.7609 25.8843 25.8613L25.0956 23.489ZM21.7993 21.5758C21.2539 19.9889 22.0286 18.5196 23.2186 18.1254L22.4325 15.7522C19.7133 16.6529 18.512 19.7026 19.435 22.3884L21.7993 21.5758ZM23.2234 18.1238C23.449 18.0481 23.6875 18.0126 23.9317 18.0145L23.9507 15.5146C23.4521 15.5108 22.9363 15.583 22.4277 15.7538L23.2234 18.1238ZM9.32399 20.4001C8.92162 20.3945 8.72838 20.1193 8.70782 20.0834C8.70254 20.0741 8.74964 20.1664 8.78403 20.4298C8.84976 20.9332 8.82267 21.6804 8.7004 22.4694C8.57788 23.26 8.37937 23.9663 8.17351 24.4012C8.06371 24.6332 8.00331 24.6766 8.04035 24.6448C8.12558 24.5719 8.45994 24.383 8.85448 24.5562L7.84943 26.8453C8.58921 27.1701 9.26102 26.8909 9.6665 26.5437C10.0238 26.2377 10.2665 25.8229 10.4331 25.4709C10.7802 24.7377 11.0283 23.7724 11.1709 22.8523C11.3138 21.9305 11.3703 20.9277 11.263 20.1061C11.2109 19.707 11.1073 19.243 10.8778 18.8419C10.633 18.414 10.142 17.9112 9.35887 17.9003L9.32399 20.4001ZM9.12996 24.7224C8.71845 24.3952 8.31064 23.5881 8.34187 22.625C8.37068 21.7366 8.77257 20.8416 9.80075 20.2616L8.57236 18.0842C6.69522 19.1432 5.89683 20.8895 5.84318 22.544C5.79196 24.1238 6.41951 25.7612 7.57396 26.6792L9.12996 24.7224ZM9.51858 20.378C9.47516 20.3899 9.43069 20.3974 9.38586 20.4003L9.22243 17.9057C9.09804 17.9138 8.97476 17.9346 8.85453 17.9678L9.51858 20.378ZM9.3989 20.3994L9.43618 20.3966L9.24668 17.9038L9.2094 17.9066L9.3989 20.3994ZM29.5674 20.3969L29.6061 20.3997L29.7886 17.9064L29.7499 17.9035L29.5674 20.3969ZM29.6119 20.4001C29.5674 20.397 29.5233 20.3895 29.4802 20.3776L30.1468 17.9681C30.0279 17.9352 29.9059 17.9144 29.7828 17.9059L29.6119 20.4001ZM29.1993 20.2616C30.2275 20.8416 30.6298 21.7371 30.6587 22.6257C30.6901 23.589 30.2822 24.3954 29.8711 24.7216L31.4251 26.6799C32.5814 25.7624 33.2089 24.1243 33.1574 22.5444C33.1035 20.8898 32.3048 19.1431 30.4277 18.0842L29.1993 20.2616ZM30.1456 24.5562C30.5401 24.383 30.8745 24.5719 30.9597 24.6448C30.9968 24.6766 30.9364 24.6332 30.8266 24.4012C30.6207 23.9663 30.4222 23.26 30.2997 22.4694C30.1774 21.6804 30.1503 20.9332 30.216 20.4298C30.2504 20.1664 30.2975 20.0741 30.2923 20.0834C30.2717 20.1193 30.0785 20.3945 29.6761 20.4001L29.6412 17.9003C28.8581 17.9112 28.3671 18.414 28.1223 18.8419C27.8928 19.243 27.7892 19.707 27.7371 20.1061C27.6298 20.9277 27.6863 21.9305 27.8292 22.8523C27.9718 23.7724 28.2199 24.7377 28.567 25.4709C28.7336 25.8229 28.9763 26.2377 29.3336 26.5437C29.7391 26.8909 30.4109 27.1701 31.1506 26.8453L30.1456 24.5562ZM19.5097 25.3329C20.1951 25.3276 20.8561 25.5726 21.3662 26.0171L23.0086 24.1322C22.0355 23.2843 20.7826 22.823 19.4904 22.833L19.5097 25.3329ZM21.3549 26.007C21.8477 26.4471 22.1139 27.0601 22.1104 27.6326L24.6104 27.6477C24.6184 26.3191 24.0184 25.0338 23.0199 24.1422L21.3549 26.007ZM22.1104 27.6402C22.1104 28.2025 21.8515 28.7982 21.3721 29.2343L23.0543 31.0837C24.0233 30.2023 24.6104 28.9478 24.6104 27.6402H22.1104ZM21.3827 29.2248C20.8634 29.6865 20.1891 29.9477 19.4852 29.956L19.5148 32.4558C20.8172 32.4404 22.0717 31.9573 23.0437 31.0932L21.3827 29.2248ZM19.5155 29.956C18.8113 29.9473 18.1367 29.686 17.6169 29.2243L15.9568 31.0936C16.9289 31.9569 18.1828 32.4397 19.4846 32.4558L19.5155 29.956ZM17.6226 29.2295C17.3942 29.024 17.2118 28.7753 17.086 28.4992L14.8109 29.5354C15.0798 30.1259 15.4682 30.6543 15.9511 31.0885L17.6226 29.2295ZM17.086 28.4992C16.9603 28.2231 16.8936 27.9251 16.8895 27.6234L14.3898 27.6569C14.3985 28.3055 14.542 28.9449 14.8109 29.5354L17.086 28.4992ZM16.8896 27.6505C16.8922 27.3423 16.9598 27.0376 17.0888 26.7557L14.8154 25.7157C14.5403 26.317 14.3952 26.969 14.3897 27.6298L16.8896 27.6505ZM17.0888 26.7557C17.2177 26.4738 17.4054 26.2205 17.6407 26.0125L15.9847 24.1396C15.489 24.5779 15.0904 25.1145 14.8154 25.7157L17.0888 26.7557ZM17.6344 26.018C18.144 25.5735 18.8046 25.3287 19.4897 25.3343L19.5104 22.8344C18.2176 22.8238 16.964 23.2853 15.991 24.1341L17.6344 26.018ZM10.539 27.1999C10.7243 27.1962 11.052 27.2725 11.4979 27.5408C11.9296 27.8005 12.3933 28.1941 12.825 28.6887L14.7086 27.045C14.1365 26.3893 13.4781 25.8146 12.7867 25.3986C12.1094 24.9911 11.3128 24.6842 10.4899 24.7004L10.539 27.1999ZM12.8097 28.6708C13.2175 29.1564 13.5386 29.8694 13.6538 30.5104C13.7108 30.8273 13.7058 31.0628 13.678 31.2048C13.65 31.3478 13.6226 31.2964 13.7194 31.2249L15.2052 33.2354C15.7689 32.8189 16.0276 32.2161 16.1316 31.6844C16.2357 31.1516 16.2081 30.5892 16.1144 30.0679C15.9281 29.0326 15.4346 27.9089 14.724 27.0629L12.8097 28.6708ZM13.8227 31.1562C13.823 31.156 13.8171 31.1595 13.8034 31.1652C13.7899 31.1708 13.7701 31.1779 13.7437 31.1852C13.6901 31.1999 13.6156 31.2135 13.5205 31.2189C13.3293 31.2297 13.0792 31.206 12.7929 31.1174C12.2296 30.9432 11.5368 30.5205 10.927 29.6546L8.88299 31.094C9.79758 32.3928 10.941 33.1615 12.0541 33.5058C13.1151 33.8339 14.2652 33.8025 15.102 33.3041L13.8227 31.1562ZM10.9924 29.7578C10.5753 29.0221 10.4151 28.314 10.4118 27.7853C10.408 27.1723 10.5969 27.0813 10.4834 27.1665L8.98246 25.1672C8.14617 25.795 7.9063 26.8997 7.91184 27.8007C7.91791 28.786 8.20506 29.9104 8.8176 30.9908L10.9924 29.7578ZM10.3779 27.2376C10.4056 27.2209 10.4511 27.2016 10.5395 27.1999L10.4894 24.7004C10.0128 24.7099 9.53056 24.8295 9.08793 25.0961L10.3779 27.2376ZM28.3895 27.2001H28.4856V24.7001H28.3895V27.2001ZM28.4605 27.1999C28.5508 27.2017 28.5949 27.2203 28.6246 27.2382L29.9125 25.0955C29.4662 24.8272 28.9855 24.7099 28.5107 24.7004L28.4605 27.1999ZM28.5172 27.1658C28.4035 27.0803 28.5924 27.1717 28.5886 27.7853C28.5854 28.3144 28.4253 29.0228 28.0087 29.7585L30.1843 30.9902C30.7959 29.9097 31.0825 28.7856 31.0886 27.8007C31.0941 26.9003 30.8549 25.796 30.02 25.1679L28.5172 27.1658ZM28.0748 29.6542C27.4643 30.5203 26.771 30.9432 26.2076 31.1174C25.9212 31.206 25.6712 31.2297 25.4802 31.2189C25.3853 31.2135 25.311 31.1999 25.2577 31.1853C25.2313 31.178 25.2117 31.171 25.1983 31.1654C25.1848 31.1598 25.1791 31.1563 25.1796 31.1567L23.8988 33.3036C24.7354 33.8027 25.8857 33.8338 26.9463 33.5058C28.0593 33.1615 29.2029 32.393 30.1182 31.0945L28.0748 29.6542ZM25.2814 31.2243C25.3777 31.2954 25.3503 31.3464 25.3223 31.2037C25.2944 31.0618 25.2891 30.8265 25.346 30.5099C25.4609 29.8693 25.7817 29.1567 26.1899 28.6714L24.2766 27.0623C23.5648 27.9086 23.0711 29.0327 22.8853 30.0684C22.7917 30.5899 22.7645 31.1526 22.8691 31.6855C22.9736 32.2175 23.2331 32.8199 23.797 33.236L25.2814 31.2243ZM26.1753 28.6884C26.5933 28.2091 27.0415 27.8242 27.4619 27.5641C27.8946 27.2965 28.2248 27.2053 28.4253 27.1996L28.3538 24.7006C27.5633 24.7232 26.8016 25.033 26.1469 25.4379C25.48 25.8504 24.8454 26.4097 24.2912 27.0453L26.1753 28.6884ZM19.5136 33.5806C20.1481 33.5737 20.9786 33.7077 21.6215 33.9274C21.9471 34.0387 22.1483 34.1464 22.2405 34.2151C22.376 34.3159 22.0937 34.1708 22.1083 33.7495L24.6068 33.8359C24.6357 33.0002 24.0738 32.4631 23.7329 32.2094C23.3488 31.9236 22.8769 31.7145 22.4299 31.5617C21.5277 31.2534 20.415 31.0707 19.4864 31.0808L19.5136 33.5806ZM22.1087 33.8458C22.1028 33.7072 22.1272 33.6046 22.1427 33.5529C22.1589 33.4989 22.1752 33.4681 22.178 33.4629C22.1822 33.4551 22.1645 33.4883 22.1033 33.5581C21.9829 33.6956 21.7745 33.8834 21.4918 34.071C20.9098 34.4574 20.2068 34.7177 19.5858 34.6915L19.4802 37.1892C20.8024 37.2451 22.0238 36.7185 22.8744 36.1539C23.308 35.8661 23.6929 35.5375 23.9837 35.2056C24.1281 35.0408 24.2705 34.8511 24.3818 34.6432C24.4798 34.4602 24.6233 34.1364 24.6064 33.7396L22.1087 33.8458ZM19.533 34.6903H19.4685V37.1903H19.533V34.6903ZM19.4157 34.6915C18.7936 34.7177 18.0901 34.4574 17.5085 34.0715C17.2259 33.8839 17.0179 33.6964 16.8978 33.5592C16.8369 33.4896 16.8195 33.4567 16.8239 33.4649C16.8268 33.4703 16.8431 33.5014 16.8593 33.5557C16.8748 33.6077 16.8989 33.7103 16.8927 33.8487L14.3952 33.7367C14.3774 34.1338 14.5202 34.4582 14.6184 34.642C14.7296 34.8505 14.8721 35.0406 15.0166 35.2057C15.3074 35.538 15.6925 35.8668 16.1262 36.1546C16.9772 36.7192 18.1989 37.2451 19.5213 37.1892L19.4157 34.6915ZM16.8932 33.7495C16.9078 34.1708 16.6255 34.3159 16.761 34.2151C16.8532 34.1464 17.0544 34.0387 17.38 33.9274C18.0229 33.7077 18.8534 33.5737 19.4879 33.5806L19.5151 31.0808C18.5865 31.0707 17.4738 31.2534 16.5716 31.5617C16.1246 31.7145 15.6527 31.9236 15.2686 32.2094C14.9277 32.4631 14.3658 33.0002 14.3947 33.8359L16.8932 33.7495Z" fill="#4D2212" mask="url(#path-1-inside-1_1405_731)"/>
</svg>
